<?xml version="1.0" standalone="no"?>
<!DOCTYPE svg PUBLIC "-//W3C//DTD SVG 1.1//EN" "http://www.w3.org/Graphics/SVG/1.1/DTD/svg11.dtd">
<svg xmlns="http://www.w3.org/2000/svg" width="800" height="1000" viewBox="0 0 800 1000"><path fill="#FCFCFB" stroke="#FCFCFB" d="m305.5 23 198.5.5-198.5.5v-1ZM278.5 24l2.5.5-2.5.5v-1ZM523.5 24l2.5.5-2.5.5v-1ZM265.5 25l5.5.5-5.5.5v-1ZM533.5 25l4.5.5-4.5.5v-1ZM554.5 28l2.5.5-2.5.5v-1ZM296.5 49l12.5.5-12.5.5v-1ZM315.5 49l5.5.5-5.5.5v-1ZM327.5 49l175.5.5-175.5.5v-1ZM276.5 50l7.5.5-7.5.5v-1ZM518.5 50l2.5.5-2.5.5v-1ZM270.5 51l3.5.5-3.5.5v-1ZM528.5 51l4.5.5-4.5.5v-1ZM551.5 51l.5 2-2-.5 1.5-1.5ZM264.5 52l3.5.5-3.5.5v-1ZM535.5 52l3.5.5-3.5.5v-1ZM249.5 55l2.5.5-2.5.5v-1ZM179.5 56l-1 2 1-2ZM235.5 58l.5 2-3.5 1 1-2 2-1ZM237.5 58l2.5.5-2.5.5v-1ZM637.5 63l1 2-1-2ZM219.5 65l1.5.5-3.5 1.5v-1l2-1ZM640.5 65l1 2-1-2ZM644.5 68l1 2-1-2ZM159.5 70l-1 2 1-2ZM648.5 71l1 2-1-2ZM204.5 72l-1 2 1-2ZM655.5 77l1 2-1-2ZM146.5 81l-4 5 4-5ZM620.5 83l1 2-1-2ZM662.5 83l11 12-11-12ZM184.5 84l-1 2 1-2ZM181.5 86l-1 2 1-2ZM138.5 89l-1 2 1-2ZM631.5 91l1 2-1-2ZM172.5 93l-1 2 1-2ZM133.5 94l-4 5 4-5ZM635.5 94l1 2-1-2ZM167.5 97l-4 5 4-5ZM641.5 99l13 14-13-14ZM126.5 102l-2 3 2-3ZM682.5 105l1 2-1-2ZM122.5 107l-2 3 2-3ZM306.5 113l4.5.5-4.5.5v-1ZM486.5 113l5.5.5-5.5.5v-1ZM144.5 114l.5 1.5-2 1 1.5-2.5ZM150.5 114l-1 2 1-2ZM507.5 114l2.5.5-2.5.5v-1ZM277.5 116l2.5.5-2.5.5v-1ZM491.5 116l8.5.5-8.5.5v-1ZM523.5 116l2.5.5-2.5.5v-1ZM660.5 119l1 2-1-2ZM692.5 119l1 2-1-2ZM113.5 120l-1 2 1-2ZM145.5 120l-1 2 1-2ZM133.5 137l-1 2 1-2ZM219.5 137l-1 2 1-2ZM344.5 138l3.5.5-3.5.5v-1ZM350.5 138l109.5.5-109.5.5v-1ZM302.5 139l2.5.5-2.5.5v-1ZM306.5 139l5.5.5-5.5.5v-1ZM490.5 139l9.5.5-9.5.5v-1ZM508.5 140l4.5.5-4.5.5v-1ZM212.5 142l-2 3 2-3ZM276.5 142l3.5.5-3.5.5v-1ZM269.5 143l-1 2-2.5-.5 3.5-1.5ZM272.5 143l2.5.5-2.5.5v-1ZM528.5 143l2.5.5-2.5.5v-1ZM207.5 146l-2 3 2-3ZM678.5 146l1 2-1-2ZM600.5 148l8 9-8-9ZM242.5 150l1.5.5-3.5 1.5v-1l2-1ZM240.5 154l1.5.5-2.5 1.5 1-2ZM196.5 157l-1 2 1-2ZM232.5 159l-1 2 1-2ZM571.5 159l2.5 1.5-1.5-.5-1-1ZM116.5 161l1.5 2.5-2-1 .5-1.5ZM575.5 161l1 2-1-2ZM192.5 162l-1 2 1-2ZM578.5 163l2 3-2-3ZM615.5 165l1 2-1-2ZM189.5 166l-1 2 1-2ZM223.5 166l-8 9 8-9ZM587.5 171l2 3-2-3ZM595.5 181l1 2-1-2ZM365.5 190l5.5.5-5.5.5v-1ZM427.5 190l8.5.5-8.5.5v-1ZM340.5 191l2.5.5-2.5.5v-1ZM457.5 191l4.5.5-4.5.5v-1ZM695.5 191l.5 2.5h-1l.5-2.5ZM316.5 192l6.5.5-6.5.5v-1ZM479.5 192l6.5.5-6.5.5v-1ZM303.5 193l3.5.5-3.5.5v-1ZM352.5 193l12.5.5-12.5.5v-1ZM494.5 193l2.5.5-2.5.5v-1ZM517.5 196l2.5.5-2.5.5v-1ZM723.5 199l.5 2.5h-1l.5-2.5ZM82.5 204l.5 2.5h-1l.5-2.5ZM724.5 209l.5 2.5h-1l.5-2.5ZM561.5 211l2 3-2-3ZM240.5 214l-2 3 2-3ZM334.5 214l2.5.5-2.5.5v-1ZM722.5 215l.5 6.5h-1l.5-6.5ZM343.5 216l19.5.5-19.5.5v-1ZM446.5 216l6.5.5-6.5.5v-1ZM454.5 216l5.5.5-5.5.5v-1ZM107.5 217l.5 3.5h-1l.5-3.5ZM324.5 217l3.5.5-3.5.5v-1ZM473.5 217l3.5.5-3.5.5v-1ZM567.5 217l1 2-1-2ZM311.5 218l3.5.5-3.5.5v-1ZM487.5 218l2.5.5-2.5.5v-1ZM298.5 219l3.5.5-3.5.5v-1ZM497.5 219l3.5.5-3.5.5v-1ZM638.5 219l.5 2.5h-1l.5-2.5ZM291.5 220l2.5.5-2.5.5v-1ZM167.5 221l.5 2.5h-1l.5-2.5ZM107.5 222l.5 2.5h-1l.5-2.5ZM193.5 222l.5 3.5h-1l.5-3.5ZM282.5 222l2.5.5-2.5.5v-1ZM518.5 222l2.5.5-2.5.5v-1ZM725.5 222l.5 13.5h-1l.5-13.5ZM83.5 223l.5 5.5h-1l.5-5.5ZM278.5 223l2.5.5-2.5.5v-1ZM523.5 223l2.5.5-2.5.5v-1ZM639.5 226l.5 2.5h-1l.5-2.5ZM166.5 227l.5 6.5h-1l.5-6.5ZM699.5 228l.5 30.5h-1l.5-30.5ZM640.5 237l.5 2.5h-1l.5-2.5ZM614.5 238l.5 4.5h-1l.5-4.5ZM577.5 239l.5 2.5h-1l.5-2.5ZM228.5 240l.5 26.5h-1l.5-26.5ZM191.5 243l.5 6.5h-1l.5-6.5ZM232.5 247l-1 2 1-2ZM165.5 251l.5 179.5h-1l.5-179.5ZM254.5 252l.5 120.5h-1l.5-120.5ZM699.5 262l.5 36.5h-1l.5-36.5ZM552.5 266l.5 161.5h-1l.5-161.5ZM615.5 267l.5 162.5h-1l.5-162.5ZM228.5 268l.5 2.5h-1l.5-2.5ZM578.5 271l.5 108.5h-1l.5-108.5ZM699.5 305l.5 3.5h-1l.5-3.5ZM80.5 307l.5 4.5h-1l.5-4.5ZM80.5 319l.5 4.5h-1l.5-4.5ZM228.5 348l.5 2.5h-1l.5-2.5ZM228.5 361l.5 6.5h-1l.5-6.5ZM80.5 362l.5 24.5h-1l.5-24.5ZM254.5 374l.5 5.5h-1l.5-5.5ZM725.5 376l.5 2.5h-1l.5-2.5ZM254.5 385l.5 6.5h-1l.5-6.5ZM80.5 389l.5 6.5h-1l.5-6.5ZM725.5 389l.5 22.5h-1l.5-22.5ZM254.5 393l.5 4.5h-1l.5-4.5ZM699.5 398l.5 5.5h-1l.5-5.5ZM80.5 399l.5 9.5h-1l.5-9.5ZM725.5 418l.5 383.5h-1l.5-383.5ZM191.5 425l.5 9.5h-1l.5-9.5ZM254.5 425l.5 16.5h-1l.5-16.5ZM699.5 425l.5 2.5h-1l.5-2.5ZM699.5 432l.5 21.5h-1l.5-21.5ZM228.5 436l.5 9.5h-1l.5-9.5ZM166.5 446l.5 5.5h-1l.5-5.5ZM640.5 446l.5 2.5h-1l.5-2.5ZM192.5 447l.5 2.5h-1l.5-2.5ZM577.5 447l.5 2.5h-1l.5-2.5ZM614.5 447l.5 2.5h-1l.5-2.5ZM229.5 448l.5 2.5h-1l.5-2.5ZM574.5 449l.5 2.5h-1l.5-2.5ZM80.5 451l.5 4.5h-1l.5-4.5ZM259.5 453l2 3-2-3ZM193.5 455l.5 3.5h-1l.5-3.5ZM639.5 455l.5 2.5h-1l.5-2.5ZM699.5 456l.5 5.5h-1l.5-5.5ZM571.5 458l-.5 1.5-.5 1.5-.5-1.5 1.5-1.5ZM172.5 462l1.5.5-1 2.5q-2.7 1.1-2-1.5l1.5-1.5ZM321.5 463l2.5.5-2.5.5v-1ZM359.5 463l11.5.5-11.5.5v-1ZM383.5 463l7.5.5-7.5.5v-1ZM405.5 463l9.5.5-9.5.5v-1ZM425.5 463l2.5.5-2.5.5v-1ZM434.5 463l5.5.5-5.5.5v-1ZM446.5 463l31.5.5-31.5.5v-1ZM699.5 466l.5 2.5h-1l.5-2.5ZM566.5 470l-2 3 2-3ZM246.5 476l1 2-1-2ZM252.5 477l2.5 1.5-1.5.5-1-2ZM699.5 481l.5 5.5h-1l.5-5.5ZM603.5 482l-1 2 1-2ZM545.5 483l2.5.5-5.5 1.5v-1l3-1ZM262.5 484l2.5.5-2.5.5v-1ZM106.5 485l.5 4.5h-1l.5-4.5ZM266.5 485l2.5.5-2.5.5v-1ZM273.5 486l3.5.5-3.5.5v-1ZM600.5 486l-1 2 1-2ZM597.5 489l-3 4 3-4ZM182.5 491l2 3-2-3ZM699.5 492l.5 23.5h-1l.5-23.5ZM182.5 498l1 2-1-2ZM186.5 503l2 3-2-3ZM193.5 504l2.5 1.5-1.5.5-1-2ZM249.5 506l6.5.5-6.5.5v-1ZM552.5 506l3.5.5-3.5.5v-1ZM610.5 512l-1 2 1-2ZM198.5 514l1 2-1-2ZM606.5 515l-1 2 1-2ZM596 516l2 .5-3 2 1-2.5ZM603.5 517l-1 2 1-2ZM247.5 532l3.5.5-3.5.5v-1ZM553.5 532l4.5.5-4.5.5v-1ZM266.5 533l272.5.5-272.5.5v-1ZM106.5 567l.5 4.5h-1l.5-4.5ZM106.5 600l.5 14.5h-1l.5-14.5ZM106.5 624l.5 17.5h-1l.5-17.5ZM106.5 643l.5 6.5h-1l.5-6.5ZM699.5 674l.5 5.5h-1l.5-5.5ZM106.5 681l.5 5.5h-1l.5-5.5ZM699.5 683l.5 3.5h-1l.5-3.5ZM106.5 691l.5 8.5h-1l.5-8.5ZM699.5 699l.5 75.5h-1l.5-75.5ZM106.5 718l.5 10.5h-1l.5-10.5ZM106.5 730l.5 4.5h-1l.5-4.5ZM106.5 741l.5 2.5h-1l.5-2.5ZM106.5 746l.5 4.5h-1l.5-4.5ZM106.5 755l.5 8.5h-1l.5-8.5ZM106.5 768l.5 6.5h-1l.5-6.5ZM699.5 777l.5 20.5h-1l.5-20.5ZM699.5 800l.5 5.5h-1l.5-5.5ZM83.5 803l.5 2.5h-1l.5-2.5ZM107.5 810l.5 3.5h-1l.5-3.5ZM81.5 813l.5 2.5h-1l.5-2.5ZM105.5 820l.5 5.5h-1l.5-5.5ZM82.5 823l.5 2.5h-1l.5-2.5ZM723.5 823l.5 3.5h-1l.5-3.5ZM133.5 888l1 2-1-2ZM138.5 895l1 2-1-2ZM668.5 895l-1 2 1-2ZM109.5 899l1 2-1-2ZM142.5 900l1 2-1-2ZM662.5 903l-2 3 2-3ZM692.5 906l-1 2 1-2ZM150.5 909l6 7-6-7ZM687.5 913l-1 2 1-2ZM684.5 917l-1 2 1-2ZM123.5 918l4 5-4-5ZM647.5 918l-3 4 3-4ZM161.5 919l1 2-1-2ZM641.5 923l-1 2 1-2ZM678.5 924l-3 4 3-4ZM138.5 933l1 2-1-2ZM669.5 933l-4 5 4-5ZM661.5 940l-2 3 2-3ZM157.5 943l2.5 1.5-1.5-.5-1-1ZM656.5 944l-1 2 1-2ZM156.5 947l1 2-1-2ZM585.5 947l2.5.5-2.5.5v-1ZM236.5 949l2.5.5-2.5.5v-1ZM246.5 950l7.5.5-7.5.5v-1ZM561.5 950l5.5.5-5.5.5v-1ZM587.5 973l3.5.5-3.5.5v-1ZM228.5 974l2.5.5-2.5.5v-1ZM270.5 974l6.5.5-6.5.5v-1ZM278.5 974l2.5.5-2.5.5v-1ZM283.5 974l6.5.5-6.5.5v-1ZM292.5 974l26.5.5-26.5.5v-1ZM358.5 974l12.5.5-12.5.5v-1ZM377.5 974l6.5.5-6.5.5v-1ZM397.5 974l3.5.5-3.5.5v-1ZM405.5 974l7.5.5-7.5.5v-1ZM481.5 974l8.5.5-8.5.5v-1ZM499.5 974l5.5.5-5.5.5v-1ZM519.5 974l6.5.5-6.5.5v-1ZM535.5 974l6.5.5-6.5.5v-1ZM581.5 974l2.5.5-2.5.5v-1ZM237.5 975l2.5.5-2.5.5v-1ZM574.5 975l2.5.5-2.5.5v-1ZM252.5 976l13.5.5-13.5.5v-1ZM546.5 976l15.5.5-15.5.5v-1Z"/><path fill="#F7F5F1" stroke="#F7F5F1" d="m282.5 24 2.5.5-2.5.5v-1ZM290 24h225.5l.5 2h-12.5l-1-1h-143l-1 1h-18l-1-1h-42l-1 1H290v-2ZM261.5 26l2.5.5-2.5.5v-1ZM277.5 26l5.5.5-5.5.5v-1ZM521.5 26l4.5.5-4.5.5v-1ZM538.5 26l2.5.5-2.5.5v-1ZM269.5 27l4.5.5-4.5.5v-1ZM290 27l226 .5-1.5 1.5H290v-2ZM530.5 27l5.5.5-5.5.5v-1Z"/><path fill="#F7F5F1" stroke="#F7F5F1" d="M262.5 28q4.8-1.7 3.5 2.5l1.5-.5 6.5 1q1.4 3.7-4.5 2H265l-.5 3h-7l-2.5-1.5 1.5-1.5 8.5-1q1.7-4.1-2.5-3v-1Zm-.5 5q-1 3 2 2 1-3-2-2ZM522.5 29h2l4.5 1-1.5 3h-62l-1 1-1-1h-161l-3 1h-2l-3-1-3 1h-2l-12-2-1.5.5.5-2.5h13l1 1h211l1 1h12l2-2q4.8 1.2 6-1ZM535.5 30l4.5.5-4.5.5v-1ZM552.5 30l3.5.5-3.5.5v-1ZM246.5 31l.5 2q4.7-.9 7 1.5-2.5 2.6-8 1.5l1-2.5-5-1 4.5-1.5ZM557.5 31l5.5 1-.5 2-4-1-1-2ZM235.5 32l1 2-1-2ZM569.5 32l-1 2-1.5-.5 2.5-1.5ZM541 33l15 .5-2.5 2.5h-13l.5-1.5V33ZM228.5 34l-.5 1.5q-1.1 3.3 1.5 2.5l1-3 4-1 .5 2h-3l-2 4h-3q1.1-2.7-1.5-2v-1q2.3.8 1.5-1.5l1.5-1.5ZM570.5 34l4.5 1.5-5.5.5 1-2ZM577.5 35l.5 2 2 .5-3 .5-.5 2-.5-1.5 1.5-3.5ZM214.5 39l2.5 1.5-3.5 1.5-1-2 2 1v-2ZM590.5 39l-1 2-1.5-.5 2.5-1.5Z"/><path fill="#F7F5F1" stroke="#F7F5F1" d="M572 40q4.1-1.3 3 2-4.1 1.3-3-2ZM595.5 41l-1 2 1-2ZM208.5 43l.5 2-2-.5 1.5-1.5ZM220 43h7v3q-5.4 1.5-7-1.5V43ZM578 43h6.5l.5 1.5q-.7 2.3-4.5 1.5l-2.5-1v-2ZM602.5 44l-1 2-1.5-.5 2.5-1.5ZM211.5 45l3.5 1.5V48h-5l1.5-3ZM591.5 45l3.5 1q1.2 3.7-4 2l.5-3ZM252 46q5.5-1.1 8 1.5-2.5 2.6-8 1.5v-3ZM273.5 46q5.3-1.5 3.5 3l-13-1.5 8.5-.5 1-1ZM529 46h11.5l.5 1.5.5 1.5h-2q-4.7 1.2-6-1l-3 1-1.5-3ZM547.5 46h6l.5 3h5.5l3 1 3.5-1v3h-8.5l-3.5-1.5-.5-1.5h-7l-3.5-1.5 4.5-1.5Z"/><path fill="#F7F5F1" stroke="#F7F5F1" d="m241.5 47 9.5 3q-1.8 4.9 4.5 3l5.5-2.5-.5-1.5 8.5 2.5-21.5 3.5-8 3-5-2v1l1.5.5-6.5 3.5 1-2 3.5-1.5-2-.5q-1.5-3.8 1.5-3h2l3.5.5-.5 1.5 9.5-2-1.5-3q-5.4.6-7.5-1-1.1-2.7 1.5-2l1-1ZM289.5 47l3.5 2.5-2.5.5-3-1q-1.3 2.3-2.5-.5l4.5-1.5ZM494.5 47l3.5.5-3.5.5v-1ZM499.5 47l14.5 1.5-4.5 1.5-10-2v-1ZM603.5 47l2.5 1.5-3 2 1-2-.5-1.5ZM198.5 48l4.5.5-1 3 1 5.5-7.5 1-2 2-3-2-.5 3h-4v-1.5l2-1-.5 1.5q2.6.8 1.5-2.5l9-3.5.5-2 2.5 1q1.5-3.7-1.5-3l-1.5-.5q.8 2.6-2.5 1.5l-6 3 1-2 8-4ZM298.5 48l3.5.5-3.5.5v-1ZM321.5 48l2.5.5-2.5.5v-1ZM515.5 48l12.5 1.5-11.5.5-1-2ZM607.5 48l2 1 1.5-.5q-2.2 1.2.5 2.5l1.5.5-1.5.5-4-4ZM280.5 49l2.5.5-2.5.5v-1ZM529.5 50l11.5 1.5q-1.2 2.8-2.5.5l-9-1v-1ZM543.5 50l2.5 1.5-3 .5.5-2ZM185.5 53q3 1.5 0 3v-3ZM551.5 53l1.5.5-3.5 1.5v-1l2-1ZM567.5 53q2.3-.7 1.5 1.5h2q-1.1 3.3 1.5 2.5v1l-4-1v1l5 1 2.5-1q1.7 4.1-2.5 3l-8-4-1.5.5.5-1.5-3 1-4-2-2 1-1-2 11 1 2-2Zm-.5 2v2l2-1-2-1ZM602 53h3.5l8.5 4.5q.9 3.4-4.5 1.5l-7.5-2v-4ZM620.5 55l3.5 2.5-1.5.5-2-3ZM615 58q5.6-1.9 4 3l-4-1.5V58ZM213.5 59q3.8-.7 4.5 1.5l-4 2q-1.3 4.6 4.5 2.5l6.5-4q1.3 3-2.5 2l-19 10-1.5-.5q.8 2.3-1.5 1.5l-6 4-2-1-1 3-2-1v2h-2l-1.5.5.5 1.5-1.5-.5-1.5 2.5h-2q-2.6-.8-1.5 2.5l-2.5.5-2.5 1.5q2.3 1.3-.5 2.5l-1.5-3.5 6-3-3-.5.5-3 5 2 3.5-2.5q-.7-2.2 1.5-1.5 3-1.5 0-3l-10 2-1.5-4 9.5-1 4 1 1.5-.5-1 2 1.5-.5 9.5-3 1.5-3 2 1q1.9-3.6 8-3l2.5-2.5-5.5-1.5-7.5 3q-2.7-7.5 5.5-5l3 1 4-4ZM202 63q-1 3 2 2 1-3-2-2ZM587.5 59h4l8 3 4.5-1q2.3 6.4-5.5 4l-2-2-5-1h-2l-3 1v-2l-1.5-.5 2.5-1.5Z"/><path fill="#F7F5F1" stroke="#F7F5F1" d="M579.5 60h2l4 4 5 1 3 3 4.5-1-.5 2-3-1h-2q-2.2.8-1.5-1.5l-5.5-1.5-5-3q-1.2 2.3-2.5-.5l1.5-1.5ZM629.5 60l2.5.5-2.5.5v-1ZM631.5 62l7.5 5.5-1.5-.5-6-3-.5 5q5-.8 7 2.5l-.5 1.5H631l-1.5-3q-3.4.9-1.5-4.5-2.2-1.2.5-2.5 1.5 2.5 3-1ZM171.5 64l-1 2 1-2ZM175.5 65l2.5 1.5-.5 4.5-4.5-1-1.5 3h-7l-.5 1.5 1 1V82q-3.8.8-5-2.5l-.5-3.5-5 3-.5-2q3.8 1.5 3-1.5l4.5-4.5 2.5 1.5-1-2 2.5-4.5v4q6 1.5 7.5-1.5l2.5-3.5Zm.5 1-2 2q-1 2 2 1t0-3ZM168.5 66l-1 2 1-2ZM640.5 68l1 2-1-2ZM599.5 69l9.5 5-.5 2-4.5-2-.5-2h-2l-2.5-1.5.5-1.5ZM643.5 70l2 3q-2.2.8-1.5-1.5l-.5-1.5ZM614.5 71q4.2-1.3 2.5 3.5-2 3.5-4-1l1.5-2.5ZM647.5 71q2.8 1.3.5 2.5l2.5 3.5 1.5.5q-1.5 3-3 0 .7-2.6-2-1.5v-2.5l.5-2.5ZM618.5 74l11.5 1q2.2 5.6-3.5 4l-7-3-1-2Z"/><path fill="#F7F5F1" stroke="#F7F5F1" d="m641.5 74 3.5 2.5 2.5 5.5q5.4-.6 7.5 1 .8-3.4-2-4.5l.5-2.5q2.8 1.3.5 2.5l4 4-1.5 2.5v-2l-2.5 1.5q.5 3-6.5 1.5l-2.5-1v-3h-5v-6.5l1.5-1.5Zm1.5 3-1 3h1v-3ZM610.5 75l2.5.5q-1.1 3.3 1.5 2.5l3.5 1 .5 2 2-1 3.5 3.5-1.5 1.5-1.5-4-2 .5.5 1.5-9.5-6.5.5-1.5ZM150.5 78l-1 2 1-2ZM151.5 80l-.5 1.5q.8 2.3-1.5 1.5l-2 1 1-2 3-2ZM658.5 80l3 4-2.5-.5 1-1-1.5-2.5Z"/><path fill="#F7F5F1" stroke="#F7F5F1" d="m157.5 82 3.5 1.5q-1.7 4-8 2.5 1.2 3.7-4 2v-3q4.1 1.3 3-2h4.5l1-1ZM168 84l6 1.5-2.5 1.5h-2q-3 .8-1.5-3ZM625.5 84l2.5.5-.5 1.5q2.6-.8 1.5 2.5h-1l-1.5-2.5-1.5.5.5-2.5ZM631 84h5.5l5.5 3q2.1 5.2-2.5 4l-7-5-1.5.5V84Zm8 4q-1 3 2 2 1-3-2-2ZM660.5 85l6.5 5.5-2.5.5-4.5-3.5.5-2.5ZM143.5 87l1.5 3q3.8-1.5 3 1.5l-4 1.5v-2q-4.1 1.3-3-2 2.8 1 2.5-2ZM165.5 87l1.5 6 3.5-1-1 2-3 1-3.5-1v-5.5l1.5-.5 1-1ZM653 87q3.7-1.2 2 4-3.7 1.2-2-4ZM632.5 91l3 1 1.5.5-1.5.5h-2l-1-2ZM138.5 92l-6.5 7.5-1.5 2.5.5-1.5 7.5-8.5ZM636.5 94l7 5q1.8-2.7 3.5 1.5l-.5 3.5-2-4-6-3-2-3ZM139 95q4.5-1.5 3 3-4.5 1.5-3-3ZM152.5 95l.5 2q4.1-1.3 3 2h-3q1.7 5.2-2 4l-.5-5-1.5.5q-1.2-3.7 2.5-2.5l1-1ZM673.5 95l3 4-3-4ZM661 96q3.8-1.5 3 1.5l-3 1.5v-3ZM666.5 96l3.5 10 8 3.5q-3.1 2.4-9.5 1.5l-1.5-.5q1.3 6.1-1.5 5.5-3.1-1.4-2.5-6.5l1.5.5q3.3 1.1 2.5-1.5-3-1-2-6l2-5-.5-1.5ZM671.5 96l3 4-2.5-1.5-.5-2.5ZM157.5 97l2.5 1.5-1.5-.5-1-1Z"/><path fill="#F7F5F1" stroke="#F7F5F1" d="M137 99h3v8h-5v-4.5l2-3.5ZM161.5 99l.5 2-2.5 1 2-3ZM652 100q3.5-1.1 2 6.5l-1.5 3.5-2-5-1.5-.5 4-2-1-2.5ZM674.5 101l3.5 1.5-.5 1.5-3-3ZM679.5 102l1 2-1-2ZM158.5 103q3.5 2-1 4l-2.5-1 1 2.5-5.5 5.5-1-1-2.5 1.5-1.5-2.5q-4.8-1.7-3.5 2.5l-1 3 1.5 1.5 4-3-1 4q-1.5-2.5-3 1l-1.5-1.5-.5-1.5-.5 2-2-.5V111l3.5-2h5.5l.5 2 1-2 1 3 3.5-1.5-.5-1.5q1.3 2.2 2.5-.5l-2-1 1-2.5q3.4.8 4.5-2ZM123.5 106l1 2-1-2ZM128 108h6v2l-2.5 1-3.5-1v-2ZM658.5 109l1 2-1.5.5 2 1v2l1.5 2.5 3.5 1.5q.8 2.3-1.5 1.5-2.2-4.3-4.5-2.5v-2l-3-5h2l.5-1.5ZM682.5 109l2 3-2.5-1 .5-2ZM123.5 110l1 3 2-1q2.8 1.3 1.5 6.5l-2.5 1.5q-2.9-1.6-2-7l-2.5 1 2.5-4Z"/><path fill="#F7F5F1" stroke="#F7F5F1" d="M678 111q2.7-1.1 2 1.5l1 6.5 5.5 1 .5-3q-3.3 1.3-2-3.5h1l3.5 4.5 1.5-.5-.5 2.5-2.5-1.5 2 3-3 .5q1.1 2.7-1.5 2l-4.5-2.5V119l-3-.5V111ZM118.5 113l1 2-1-2ZM330.5 113l8.5.5-8.5.5v-1ZM346.5 113l115.5.5-86 1 2 .5-.5 2h-12v-2l-19-1v-1Zm25.5 1v1h3l-3-1ZM463.5 113l6.5.5-6.5.5v-1ZM296.5 114l5.5.5-5.5.5v-1ZM498.5 114l3.5.5-3.5.5v-1ZM315.5 115h36l.5 2h-11.5l-1-1h-24v-1Z"/><path fill="#F7F5F1" stroke="#F7F5F1" d="m383 115 95 .5-12.5 1.5h-4l-8-1-1 1H383v-2ZM118.5 116l.5 1.5-1 2.5 5 1-1.5 3-7-1-2 3-1-2 1.5-.5-.5-1.5 1.5.5 1-2-.5-1.5q1.7 2.8 3.5-1.5l.5-1.5ZM505.5 116l4.5.5-4.5.5v-1ZM273.5 117l2.5.5-2.5.5v-1ZM285.5 117l2.5.5-2.5.5v-1ZM526.5 117l1.5.5-5.5 1.5v-1l4-1ZM277.5 118l2.5.5-2.5.5v-1ZM290.5 118l.5 2 3-.5-2-1 4.5-.5 5.5 1-.5 2H290l-.5 3H277l.5-3h11l2-3ZM328.5 118h10l1 1h114l1-1h10l1 1h6.5l-.5 2h-19l-1-1h-10l-1 1h-25l-1-1h-11l-1 1h-13l-1-1h-22l-2 2h-11v-1l11.5-.5-12.5-.5-1 1h-25l2-3ZM491.5 118l18 1 5-1 1.5 3h6.5l1 1 3-1 2.5 1.5-14 1.5q1.7-4.1-2.5-3l-1 1h-8l-1-1h-11l-1.5 3h-11.5l-.5-2.5-.5-1.5h12l2-2ZM273.5 119l2.5.5-6.5 1.5v-1l4-1ZM261.5 120l2.5 1.5-2 .5q1.3 3.3-3.5 2l-3 2v-1l1.5-.5-2-1 7-2-.5-1.5ZM541.5 120l-1 2-2.5-.5 3.5-1.5ZM663 121l5 1.5-1.5 1.5q-1.7-3.1-3.5-1.5V121ZM691.5 121l2.5.5-3 1.5.5-2ZM129 122q5.6-2.2 4 3.5l-4.5 7.5-.5-6.5 1-4.5ZM141.5 122l1 2-1-1-3 3-1.5-1.5q-.9-3 3.5-1.5l1-1ZM303.5 122l10.5.5-10.5.5v-1ZM542.5 122l5 1h2l5.5 2.5-3 1 3 2-.5 1.5q2.6.7 1.5-2h2.5l1.5-.5 1.5 3.5 4.5-.5-5-2 2.5-1.5 3.5 1.5-.5 1.5 2-1-1 2H566l-.5 2h-6l-5-2-2.5 1-1.5-4H548q1 3-2 2v-4h1.5l2.5-1.5q-1.2-2.7-2.5-.5-5.5 1-5-2Zm8.5 3-2 1v1l3-1-1-1ZM669 122h7.5l.5 1.5-1 2.5-4 1.5 3 8-2 1 .5-1.5-1.5-.5v-2l-3.5-5.5-1.5.5.5-2.5 1.5.5V122Z"/><path fill="#F7F5F1" stroke="#F7F5F1" d="M252.5 123q2.3-.7 1.5 1.5l-2.5 2.5q-5.5-1-6.5 2.5l7 .5q-1.1-2.7 1.5-2l2-1 1 2-2-1-.5 2q-3.7-1.2-2 4h-6.5l-4.5-1q-1.1-2.7 1.5-2l1.5-4 9-2.5-.5-1.5ZM694.5 123l1 2-1.5-.5 1.5 2.5 1.5-.5-1 2h2q-1.5 3-3 0 .7-2.6-2-1.5l1 6q2.7-1.1 2 1.5l-2 4 1 6.5q-3.8 1-5-1.5l1-10-1-5 3-1.5 1.5-4ZM557 125l2 .5-2 1V125ZM140.5 126l-1 2 1-2ZM111.5 127l.5 3-2.5 1 1.5-2.5.5-1.5ZM240.5 127l1 2-2 1 .5-1.5.5-1.5ZM678.5 129q3-.9 1.5 3.5v2l-1.5 3.5-1.5-.5-.5 1.5-2.5-.5 3-4q-1-4.5 1.5-5.5ZM134 130l2 .5-2 1V130ZM570.5 130v2q2.3-.7 1.5 1.5l-1.5-.5q-2.2.8-1.5-1.5l1.5-1.5ZM697.5 131l1 2-1-2ZM112 132l3 1.5q.7 3-3 1.5v6q4-1.4 2 5.5l-2-1-2-3-3-7 5-2V132ZM229.5 132l-1 2-1.5-.5 2.5-1.5ZM133.5 133l2.5.5q-2.1 3.3-2.5-.5ZM238.5 133l.5 3q-4.1 1.3-3-2l2.5-1ZM576.5 133l2.5 1q1.1 2.7-1.5 2l-1-3ZM125 134q6-2.2 4 4.5l3 1-3.5-.5-2 1q-2.7-1.4-1.5-6Zm1 1q-1 4 2 3 1-4-2-3ZM259.5 134q3.8-.7 4.5 1.5-.5 3 6.5 1.5l2.5-1.5-.5-1.5 16 1 1-1h10l2 1 1-1H314l1.5 3 11.5.5-11.5.5-1-1-20-1q-1.5 2.5-7 1h-15l-.5 1.5q-1.4 3.1-6.5 2.5l-1.5-4-8 1q-1.7-4.1 2.5-3l1-1Zm5.5 4q-1 3 3 2 1-3-3-2ZM491 134h10.5l1.5 1.5 1.5 2.5h7l8 2 2-1 3.5 1q1.3 3-2.5 2l-8-2H503v-3h-7.5l-2-1-2.5 1.5 3 1-11.5.5-5.5-1.5 14-.5v-3ZM521.5 134h6.5v3h-11.5l-1.5-1.5 6.5-1.5ZM553.5 134l4.5.5-3.5 1.5-1-2ZM699.5 134q-.2 4.7 3 6l1.5-.5-3.5 1.5-2.5-2.5v-2l1.5-2.5ZM132.5 135l1 2-1-2ZM227.5 135l-1.5 2.5 1 1 1 4q-1.5 3-3 0 1.3-4.2-3.5-2.5v-1l6-4ZM328.5 135l11.5.5-11.5.5v-1ZM421.5 135l8.5.5-8.5.5v-1ZM447.5 135l5.5.5-5.5.5v-1ZM458.5 135l3.5.5-3.5.5v-1ZM539.5 135l.5 4q-6.2-1.3-9 1.5 2.6 3.4 9.5 2.5l3-2 3.5 2.5v2q-.8 2.6 2.5 1.5l3.5 1-.5 2-8-4-1.5.5.5-1.5-3 1v-1l1.5-.5-2.5-.5-2 1-9-3-1.5.5 2-4.5 10.5-3Z"/><path fill="#F7F5F1" stroke="#F7F5F1" d="M544 135q3.8-1 5 1.5l1.5 2.5 3.5 1.5-1 2 .5 1.5-7.5-2-2-7ZM104.5 136l1 2-1-2ZM580.5 136l3 2 1.5-.5-.5 2.5-2-1q-1.2 3-5.5 2l.5-3 3 2-1.5-2.5 1.5-1.5ZM329.5 137l133.5.5-133.5.5v-1ZM469.5 138l2.5.5-2.5.5v-1ZM496.5 138l3.5.5-3.5.5v-1ZM285.5 139l4.5.5-6.5 2.5-2-1-9 2-1-2h2l11-1 1-1ZM587.5 139v3q-3-1.5 0-3ZM102.5 140l2.5.5q-2.1 3.3-2.5-.5ZM252 140l2 .5v6.5h2.5l1.5-.5q-3.4 3.8-10 3.5 1.3 3-2.5 2l-2 1 1-2 7.5-2v-9ZM217.5 141l-3 4-4 3 3-4 4-3ZM680.5 141q3.3-1.1 2.5 1.5l.5 1.5q-1.7-3.7-3.5-.5l-.5 1.5-1-2-1.5.5 3.5-2.5ZM684.5 141q2.3-.7 1.5 1.5l-1.5-1.5ZM704.5 141l-.5 1.5-.5 1.5-.5-1.5 1.5-1.5ZM262.5 142l2.5 1.5-1.5 2.5-4.5-.5 1-2.5 2.5-1Z"/><path fill="#F7F5F1" stroke="#F7F5F1" d="M583.5 143q5.3-1.5 3.5 3h-5v-1.5l1.5-1.5ZM100.5 144l1.5 2.5h-1l-.5-2.5ZM106.5 144l1.5 5h-4v-1.5l-1-2q1.8 1.6 3.5-1.5ZM127.5 144v3l-1.5-.5 1 2-2-1 2.5-3.5ZM681.5 144l5 3h2q2.6-.8 1.5 2.5l2 2v9l-1 2 2 7-2.5 3.5-.5-1.5 1-2h-2l1-4-2-3 2-.5v-6.5l-4-6V147l-4.5 1 .5-1.5-.5-2.5Zm5.5 4v2l2-1-2-1ZM696 144l8 1-1 4h-7v-5ZM217.5 145h6.5v4h-6.5l-.5-1.5q-2.2-1.3.5-2.5Zm1.5 1v2l4-1-4-1ZM578 146l4 1.5-2.5 1.5-1.5-3ZM589.5 146l3.5 2 1.5 4 3.5-1.5-1-2 2-1v2q-1.3 4.2 3.5 2.5v1q-4.4-1.5-3.5 1.5-1.3 3.5-6 2.5l-1-6h-2v-2q-2.7 1.1-2-1.5l1.5-1.5ZM116 147l5 .5q-2.8 2-2 6.5h-3v-7ZM235.5 147l2.5 1.5q-.9-3 3.5-1.5 3 1.5 0 3l-2-1q-4.1 4.4-10.5 5-1.5 3.8 1.5 3l2.5 1 2-4h3l-1.5 3-6 4-2.5-1.5 1 2-2.5 1.5.5-1.5-1-4.5q3 1 2-2h-2v-5q6.5.9 9.5-3ZM564.5 147q2.3-.7 1.5 1.5l-1.5-1.5ZM705.5 147l3.5 7.5-2-1-1-3.5q-2.7 1.1-2-1.5l1.5-1.5ZM554 148l8 4.5-.5 1.5-1-2-1.5.5q.8-2.2-1.5-1.5l-1.5.5.5-1.5-2 1-.5-3ZM124.5 149l1 2q-1.2-2.2-2.5.5l-2 6h2l-3 1.5v-7.5l1.5-1.5q1.5 2.5 3-1ZM213.5 149q2.3-.7 1.5 1.5l1 3-4 1.5q-1.2-4.6 1.5-6ZM568 149l12 1.5-1 2 1 2.5-12-4.5V149Z"/><path fill="#F7F5F1" stroke="#F7F5F1" d="m682.5 149 .5 2-2-.5 1.5-1.5ZM99 152l4 2.5-1 4 .5 1.5H99v6.5q-2.6 1.4-2 6l.5 1.5H95v2q-2.7-1.1-2 1.5l-3.5 4.5-1.5-4.5h1q-.7 2.6 2 1.5 1.5-3.8-1.5-3l.5-1.5.5-1.5.5 3h2q-1.1-2.7 1.5-2v-2l1.5-.5-2.5-3.5-2 1v-1l5.5-2.5v-4q3-1.2 2-5.5l-2-.5 2-3.5ZM205.5 152l-1 2-1.5-.5 2.5-1.5ZM563 153l6.5 2 7 6 3.5 1 .5 2 3-5 6.5 1q1.6 2.1 1 7.5l-2 3 3.5 4.5-4.5-3.5 1-2-5.5-3.5-1.5.5 1-2.5-2.5 1q-4.4-5.4-11.5-7l-.5-2-1.5.5.5-1.5-3-1-1.5.5V153Zm21 10v3l6 2-1-1 1-2q-1-3-6-2ZM201.5 155l-1.5 2.5-2.5 3.5-2 1-1-2h2q2.3.8 1.5-1.5l3.5-3.5ZM604.5 155l4 4q1.7-2.8 3.5 1.5l-1 2 1 2.5 2.5-1-.5 1.5-.5 1.5-2.5-1q-.2-6.4-5.5-9-2.8.7-1-2ZM704.5 155l4.5 9.5 2 11h-1V174h-4v-6.5q-3.3-3.2-3-10l1.5-2.5ZM210.5 156l.5 5h-8v6.5l-3 1.5v-8q3.8 1.5 3-1.5l2.5-2.5 5-1ZM685.5 156l1 2-2.5-.5 1.5-1.5Z"/><path fill="#F7F5F1" stroke="#F7F5F1" d="m600.5 158 4.5 1.5q-2.5 1.5 1 3l1 6-3.5 1.5q-3-1.5-1.5-7.5l.5-1.5q-4.4 1.5-3.5-1.5l1.5-1.5ZM113 159q3-1.2 2 2.5l2 5-1.5 5.5-.5-4.5.5-1.5-2 1-.5-8ZM215.5 159l5 2 1.5-.5-.5 2.5-4.5-1-1 3.5.5 2.5 2.5.5-3 1.5-3-4.5v-4l2.5-2.5ZM685.5 159l2.5 1.5-2 1-.5-2.5ZM119.5 160l1 2-1-2ZM94.5 162l.5 2.5h-1l.5-2.5ZM194 163l2 .5-3.5 4.5-3 2-1-2 1.5.5q-.7-2.2 1.5-1.5l2.5-1v-3ZM222.5 164v3q-2.2.8-1.5-1.5l1.5-1.5ZM711.5 164l3.5 8.5-1 3 1 2.5q3-1.2 2 2.5l1 3h-1l-5-10.5q3 1.3 2-2.5l-2.5-6.5ZM616.5 167l1 2-2.5-.5 1.5-1.5ZM100 169q4.5-1.7 3 3.5l-3 1.5v-5ZM194 170l5 2.5-3.5.5-2.5-.5 1-2.5ZM609.5 170l7.5 3 .5-2 2 3 1.5-.5-3 3q.8 3.8-1.5 4.5-3.4.9-1.5-4.5v-2q.8-2.2-1.5-1.5l-2 1-3.5-1 1.5-3ZM186.5 171l2.5.5-4.5 3.5 1-2 1.5-.5-.5-1.5ZM112.5 172l1.5 3.5-2-1 .5-2.5ZM204 172h5.5l.5 1.5 2.5 1.5 1.5-.5-3 1.5-1 3.5q2.3 1.3-.5 2.5-2.7-1.2-.5-2.5 1.5-4.4-1.5-3.5H204v4h-1.5l-1.5.5q-1.2-6.1 1.5-5.5l1.5-3ZM597 172q5.2-2.1 4 2.5l1 2.5q3.7-1.3 2 4.5l-2 1q-.6-6-5-8V172Zm1 1q-1 3 2 2 1-3-2-2ZM695 172l4 .5-1 2 1.5 2.5q1.3-2.2 2.5.5-1.5 9.5 3 13v15l-1 3 1 2-2 1q-2.6-7.9-1-20l-3-6 2-.5-.5-3-1.5.5-1-5.5q-4.1-1.7-3 2.5h-1l-.5-2.5-1 2-1.5-3.5 1.5.5 2.5-1.5V172ZM114.5 173l1.5 2.5h-1l-.5-2.5ZM595.5 175v3q-3-1.5 0-3Z"/><path fill="#F7F5F1" stroke="#F7F5F1" d="m620.5 176 .5 2-2-.5 1.5-1.5ZM184.5 177l2.5 1.5-1.5-.5-1-1ZM189.5 178l.5 2-2-.5 1.5-1.5ZM623.5 178l-.5 1.5.5 1.5 1.5-.5q-1.5 3-3 0l1.5-2.5ZM711 178q3-1 2 2-3 1-2-2ZM109.5 179l1.5 4q3-1 2 2l-3.5 1-1-2q2.3.8 1.5-1.5l-.5-3.5ZM183.5 179l-1 2 1-2ZM596.5 179l-1 2 1-2ZM618 181l4 2.5 1 5h-1q1.2-4.6-4-2.5v-5ZM185.5 182q2.6-.8 1.5 2.5l3 1.5-.5 6-2.5-1v-5h-1.5l-1.5-2.5 1.5-1.5ZM625.5 182l-1 2 1-2ZM88.5 183l1.5 2.5-2-1 .5-1.5ZM599.5 183l4.5 10 3.5-2 1.5 6.5-2.5 3.5.5-1.5-.5-3.5-1 2-5-12-1.5.5.5-1.5-1.5-.5 1.5-1.5ZM205.5 184l-.5 1.5-.5 1.5-.5-1.5 1.5-1.5ZM626.5 184v2l1.5.5v2l-.5 3.5-1-2q-1.2 2.3-2.5-.5-.7-4.7 2.5-5.5Zm-.5 2-1 3h1v-3ZM103 185l2 .5V212q-3-1-2 2 3.3-1.3 2 3.5h1l1.5-5.5.5 3.5-3 8.5-2 .5v10l-2 1v-24q3.4.8 2-8-3.3-1.4-2-6.5l2-.5-2-6.5h2v-5ZM181.5 185l.5 2.5-1 3.5-3.5 1-1-2 1.5.5 3.5-5.5ZM608 185h4v1.5l1 2.5h4v6l-8-2-1-8ZM87.5 186l.5 4.5h-1l.5-4.5ZM716 186q4.5-1.7 3 3.5l1 3-2-1-.5-1.5-1.5.5V186ZM203.5 188l1 2-1.5.5.5 1.5h-2l-1.5-.5 2-.5 1.5-3ZM376.5 190l19.5.5-19.5.5v-1ZM402.5 190l17.5.5-17.5.5v-1ZM195.5 191l1 2 2.5-1.5 3 4-1.5.5-2-3-.5 2.5 3 2-2 5.5-2-.5 2-5.5q-2.7 1.1-2-1.5h-1q-2 8 2 10l-2.5 3.5.5-1.5q1.5-4.4-1.5-3.5l-3 7-.5-6.5q3.5-1.7 2-7.5 2.7 1.1 2-1.5l1-2-.5-2.5ZM348.5 191l13.5.5-25.5 2.5-2.5-1.5 2.5-.5 2 1 10-2ZM439.5 191l26 1 2.5 1.5-3 .5q-1.4 3.7 4.5 2l2 1 1.5-.5q.8 2.3-1.5 1.5-1.2 2.3-6 1l-5-2-2 1v-2l-5-1v1l1.5.5-1.5 1.5h-12v-1q6 1.3 5-2h6l3.5-1.5q-3.1-2.4-9.5-1.5-1.2 2.2-6 1l-1-2ZM325.5 192l6.5.5-6.5.5v-1ZM377.5 192l12.5.5-12.5.5v-1ZM415.5 192l6.5.5-6.5.5v-1ZM87.5 193l1.5.5-1 4.5-2.5 1-.5-1.5 2.5-4.5ZM486.5 193l1.5.5q-1.7 3.3-8.5 1.5v-1q5.5 1.5 7-1ZM628.5 193l2.5.5q-2.1 3.3-2.5-.5ZM108.5 194l.5 3.5h-1l.5-3.5ZM176.5 194l-2 3 2-3ZM303.5 194l2.5 1.5-3 .5.5-2ZM344.5 194l2 1H365q-1.1 3.5 6.5 2v1l-19-1-1 1-17 1-3.5-1.5 9.5-2.5 1 2 3.5-1.5-.5-1.5ZM391.5 194h23l.5 1.5-1.5 1.5H390l-.5 2H377l.5-3h12l2-2ZM497.5 194l5.5.5-5.5.5v-1ZM181.5 195q5.3-1.5 3.5 3l-6 1q-1.5-3.7 1.5-3l1-1Z"/><path fill="#F7F5F1" stroke="#F7F5F1" d="m490.5 195 3.5.5-4 1 1 2.5h-12.5l-2.5-1.5 2.5-1.5h11l1-1ZM720.5 195l.5 4.5h-1l.5-4.5ZM319.5 196q6.8-1.7 8.5 1.5l-.5 1.5h-10l-1-2 3-1ZM416.5 196h10l7.5 1.5-7.5 1.5h-10q-3-1.5 0-3ZM189.5 197l1.5 3.5-3 1.5 1.5-5ZM290.5 197l3.5 1.5-1.5.5-2-1q-1.7 2.8-8 1v-1q6.3 1.7 8-1ZM302.5 197l4.5.5-4.5.5v-1ZM308.5 197l2.5.5-2.5.5v-1ZM509.5 197l3.5.5-3.5.5v-1ZM612.5 197l2.5 1 2 5.5v7l-1 3 .5 1.5q-3.3 1.1-2.5-1.5v-2q1.8-6.7-1.5-8.5-3.4-.9-1.5 4.5l-2 1 1-4-.5-1.5q3.4.9 1.5-4.5l1.5-1.5ZM276.5 198q2.3-.7 1.5 1.5l-4 1 2.5-2.5ZM514.5 198l2 1 1.5-.5-2.5 1.5-1-2ZM523.5 198l6.5 3q1.1 2.7-1.5 2l-4 1v-1l1.5-.5-3-1.5.5-3ZM280.5 200h2l1.5.5-2 1 2 .5q1 3-2 2 1.3-3.3-3.5-2v-1l2-1ZM518 200l4 .5-4 1.5v-2ZM628.5 200l1 2 1-2 3 6 1.5-.5-1.5 2.5-3-5q-4.4 1.1-2-3ZM88.5 201l1.5 9.5-1.5 4.5q-2.4-4.1-1.5-11.5l1.5-2.5ZM264.5 201l6.5 1.5-4.5.5-2-2ZM532.5 202l3.5 1.5-1.5-.5q-3 .5-2-1ZM84.5 203l.5 4.5h-1l.5-4.5ZM107 203q3-1.2 2 2.5l-2-1V203ZM174.5 203l-.5 1.5-1.5 2.5q-2.6.8-1.5-2.5h1l.5 1.5 2-3ZM264.5 203l-1 2-1.5-.5 2.5-1.5Z"/><path fill="#F7F5F1" stroke="#F7F5F1" d="M519.5 203q4.8-1.3 3.5 2-4.2 0-3.5-2ZM715 203l3 1.5q-1.2 6.1 1.5 5.5l1.5 1.5v11l-1 1v187l-1 1v49l-1 1v12l1 1v301l1 1v28l1 1v7.5q-3.5-1.1-2 6.5-2.2 1.3-1 6l.5 1.5-3.5-2.5.5-12.5q1.3 2.3 2.5-.5v-35l-2-.5-.5 6-.5-307.5 1-1v-11l-1-1v-49l3-1.5V213.5l-2-3q.6-5.4-1-7.5Zm5 8-1 4h1v-4ZM721.5 203l.5 2.5h-1l.5-2.5ZM273.5 204q3.8-.7 4.5 1.5l-.5 2.5h-8l-3.5 1q1.5 3.8-1.5 3h-2l-2.5-1.5 13.5-6.5ZM628 204q2.7-1.1 2 1.5v10l-2 .5 1-9.5-1-2.5ZM259.5 205l-1 2 1-2ZM530.5 205l7 2 2.5-1q-1.1 2.7 1.5 2l3.5 1q1.1 2.7-1.5 2l-3.5 1q1.8-4.9-4.5-3l-1-1H528q-1.1-2.7 1.5-2l1-1ZM546.5 206l5.5 2.5-2.5.5-3-3ZM176.5 207l.5 5-2 .5v2l-1 13q2.5 1.5 1 7l-3 3v10l-1 1V436l-2-.5v-190l2-10v-10q-2.5-1.5 1-3l1-11.5 3-1.5.5-2.5ZM254.5 207l2.5.5-3 2 2 1-2.5.5-4.5-2.5 1.5.5 4-2ZM106.5 208l1.5 2.5-2 .5.5-3ZM170.5 209l1.5 2.5-3 2 2-3-.5-1.5ZM247.5 209l.5 2.5-2.5 4.5-5 2 1-2 5.5-4.5q-2.2-1.3.5-2.5ZM441.5 209h10l1.5 1.5-.5 1.5H440l1.5-3ZM474.5 209h3.5l.5 3h14l4 1 3-1 3 1q1.5-2.5 7-1l6.5 1v3h-7.5l-1-1h-11v1l3 2 7.5 1.5-4.5.5-13.5-2.5 2-.5-1.5-4-11.5 2q1.3-3-2.5-2l-7.5-2.5 6.5-1.5ZM519.5 209q5.4-1.9 4.5 1.5l2 4.5q3.7-1.2 2 4h-4q1.3-3-2.5-2l-3.5-6.5 1.5-1.5ZM282.5 210h3l4 3 1-1h24q1.3-2.2 6-1l1 1h9l3-1 3 1h2.5q-1.1-2.7 1.5-2v2l4 1 2-1 2 1 2.5-1 .5-2H377l-.5 2h-11l-2-1-1 1H352q-1.7 4.5 3.5 3h2l1.5.5-12.5.5-2-1-1.5.5-.5-1.5-1 2-2-3q-8-.7-12.5 1l1 2.5-1.5-.5-7 1v-1l5.5-.5q-3.1-2.4-9.5-1.5l-1 1-24 1q-2-4-4 0l-10.5 1 1.5-4q4.5.5 5-3ZM558.5 210q-1.6 1.8 1.5 3.5l1 2-3-2-1-2 1.5-1.5ZM611.5 210l.5 1.5-2 1 1.5-2.5ZM189.5 211l1.5 3.5-2 1 .5-4.5ZM457.5 211l2.5.5-2.5.5v-1ZM462.5 211l2.5.5-2.5.5v-1ZM454.5 212l1 1h9.5l.5 2h11l6.5 1.5-2.5 1.5-1-1h-15q-.7-2.8-5-2-1.3 2.3-6 1l-.5-2.5 1.5-1.5ZM378.5 213h17l1.5 1.5-5.5.5-2.5-1-.5 2H377l1.5-3Zm.5 1v1h9l-9-1ZM398.5 213l3.5.5-3.5.5v-1ZM404.5 213l2.5.5-2.5.5v-1ZM409.5 213h15l1 1h2l8-1 4.5 1.5-2.5 1.5q-1.5-2.5-7-1h-2q-10.3 1.3-17-1-1.8 2.5-2-1ZM251.5 214l.5 5.5-2-1 1.5-4.5Z"/><path fill="#F7F5F1" stroke="#F7F5F1" d="M366.5 214q6.9-2 5.5 2l-12-.5 6.5-1.5ZM700.5 214l.5 6.5-2-1 1.5-5.5ZM703 214l2 .5v8l-2 1-1-3 1-6.5ZM83.5 215l.5 4.5h-1l.5-4.5ZM339.5 215l-1 2-9.5-.5 9.5-.5 1-1ZM443.5 215l8.5.5-8.5.5v-1ZM554.5 215q2.3-.7 1.5 1.5l-1 3.5q-3.3 1.3-2-3.5l1.5-1.5ZM635.5 215l.5 2-2-.5 1.5-1.5ZM88.5 216l1.5 7-3 .5v12l1 1v11h-1l-.5-11.5-1 13-.5-26q3 1.3 2-2.5l1.5-4.5ZM192.5 216l.5 2.5-2-1 1.5-1.5ZM613.5 216l1.5 3.5h-1l-.5-3.5ZM168.5 217l1.5 3.5-2 1 .5-4.5ZM306.5 217l5.5.5-5.5.5v-1ZM724.5 217l.5 4.5-1 1-.5 189.5-1.5-31.5 1-1v-17l-1-1v-19l1-3-1-1v-81l1-2-1-1v-19l1-1v-16l1.5-1.5ZM516.5 218l3.5 1.5-.5 2.5-5-2-3.5 1q-1.4-3.7 4.5-2l1-1ZM631 218q2.7-1.1 2 1.5l1 3.5-2 .5v12l1 1V248l-3-.5v-24l1-5.5ZM637.5 218l-1 2 1-2ZM239.5 219l-2 3 2-3ZM286.5 219l6.5.5-4.5 1.5-2-1-3 2 1-2 2-1ZM81.5 220q2.9 5.8 1.5 15-3.3 1.3-2-3.5v-2l.5-9.5ZM246.5 220l1.5 2.5q-1.6 3-7 1.5l-1.5 6-2-1 .5 1.5-1 13 1 4.5-3 1.5v11l-2 7v68l1 1v37l-1 1v12l1 25-1 1v23l2 2V449q3.7-1.4 2 4.5-2.2 1.3.5 2.5l1.5-.5 2 5.5 3.5-1 2.5 1q1.8 4.9-4.5 3l-2-3q-1.7 2.7-3.5-1.5l1-2q-1.5-3-3 0l2 4-2 1 .5-1.5q-3.4.9-1.5-4.5l.5-1.5q-2.2.8-1.5-1.5l-3-3v-2l.5-3.5 1 4 1.5-11.5-1-1-1-37 1-1v-24l-1-1v-12l1-12-1-1v-12q2.3-1.3 1-6l-1-1v-11q2.5-1.5 1-7-2.3-1.3-1-6l1-1v-19l-1-1v-11l1-5v-2l1-18 1-1v-15l-1-2 2.5-4.5 1 2q2.8-1.2.5-2.5-1.1-3.3 1.5-2.5l8-3ZM233 449q-4 2 1 4 2-1 0-2 1-3-1-2ZM277.5 221l1 2-2.5-.5 1.5-1.5ZM557 221h8v3q2.7-1.1 2 1.5l-2.5-1.5q-5.4.6-7.5-1v-2ZM253.5 222q5.5-1 6.5 2.5-2.7 3.2-8 2.5-1-3.8 1.5-5ZM540.5 222l1 2-3.5 1.5 1.5 1.5 2.5-1.5-1 3 .5 1.5-4.5-2q1.8-4.5-3.5-3l-2 1-4.5-2.5 4-.5q-1.1 2.7 1.5 2l4-2 2 1 2-2ZM550 222l4 1.5q1.9 6.3-3 4.5l-1-6ZM234.5 223l1 2-1-2ZM267.5 223h2l2 1 2.5-1q1.1 2.7-1.5 2l-2.5.5-.5 1.5-1.5-.5q.8 2.6-2.5 1.5-1.5 3.5-3 1l-4.5 1-2 4.5.5 1.5h-2l-3.5-1 .5-3 2.5 1.5-2-3 2.5 1.5 8-4 1.5.5q-.7-2.2 1.5-1.5 3.7-2 2-4ZM569.5 223l2.5 1.5-2 1-.5-2.5ZM614.5 223l.5 3-2-.5 1.5-2.5ZM635.5 223q2.6-.8 1.5 2.5l2 2 1 6-1 2q2.2 1.2-.5 2.5l-.5-3.5v-2q1.3-5.2-1.5-6.5l-.5 2.5 1 2-1.5 2.5-1.5-8.5 1.5-1.5ZM167.5 226q3 1.5 1.5 7.5h-1q.5-6-.5-7.5ZM192.5 226l.5 3.5h-1l.5-3.5ZM543.5 228l6.5 3.5 2 6-2-1-2-5.5q-5.1-.5-4.5-3ZM571.5 228l2.5 4.5-1.5-.5q-2.6-.8-1.5 2.5-3.5 1.5-1 3l1 10.5h-3v-7.5l-1-5 1-4.5q2.7 1.1 2-1.5l1.5-1.5ZM703.5 229l1.5 2.5-2 1 .5-3.5ZM190.5 230l.5 2.5h-1l.5-2.5ZM260.5 231l-1 2 1-2ZM188.5 234l.5 2.5h-1l.5-2.5ZM575.5 234l-.5 1.5-.5 5.5-.5-5.5 1.5-1.5ZM104.5 235l.5 50.5h-1l.5-50.5ZM106.5 235l.5 5.5h-1l.5-5.5ZM166 235l2 .5v13l-1 3 1 2-1 1-.5 25.5-.5-25.5v-2l1-12-1-5.5ZM614.5 235q4.4 3.1 2.5 12.5h-1v-6l-1.5-6.5ZM715.5 235q3 1.6 1.5 7l-2-.5.5-6.5ZM81.5 236l.5 5.5h-1l.5-5.5ZM175 236l3 .5V248l-3 .5v37l1 1v11l-1 1v12l1 1v12l-1 1v75l1 1v10l-1 1v37l-1.5 1.5-2.5-1.5v-11l2-2 1-37-1-1v-74l1-1v-11l-1-1v-12l1-1v-11l-1-1v-36l2-2V236ZM701.5 236l.5 2.5h-1l.5-2.5ZM191.5 238l.5 3.5h-1l.5-3.5ZM253.5 239l1 2q-2.8.7-1-2ZM638.5 239l1 22 1-20 .5 182.5h-1l-1-3 1-1v-114l-1-3 1-3v-27l-1-4 1-5-1-2.5-2-.5v-10l-.5-1.5 1.5-.5q-2.5-1.5-1-7l1.5-2.5ZM189.5 241l.5 6.5h-1l.5-6.5ZM230.5 241l.5 9.5h-1l.5-9.5ZM106.5 242l.5 5.5h-1l.5-5.5ZM254.5 242l.5 2.5h-1l.5-2.5ZM553.5 244l.5 2.5h-1l.5-2.5ZM575.5 244l1.5 6.5-1 4 1 1v11l1 1v112l-1 1v61l.5 1.5-1.5-.5-1 6 1 2h-1q-3.2-2.3-2-9l3-1-.5-5.5-2.5 1v-12.5l1.5-.5 1.5.5-.5-12.5-2.5 1v-13.5l1.5-.5 1.5.5-.5-18.5-1 6-.5-12.5h1l.5 4.5 1.5-5.5v-92l-1-3v-17l-1-1q1.5-7.5-1-11l1.5-4.5Zm.5 187-1 3h1v-3Z"/><path fill="#F7F5F1" stroke="#F7F5F1" d="m239 248 2 .5V260l-2-.5V248ZM252.5 249l.5 131.5 1 3v2q-2.7 6.3-1 17l1 2-1 1v12l1 5-1 1-.5 19.5V249ZM566 249l2 .5V261l-2-.5V249ZM106.5 250l.5 14.5h-1l.5-14.5ZM190.5 250l-.5 1.5 1 2-1 1-.5 187.5q-2.5-1-1.5-5.5l1-1v-184l1.5-1.5ZM700 253q3.7-1.3 2 4.5v2l-1 5v2l1 12-1 1v218l1 2h-1l-1-2V253ZM552.5 254l.5 3.5h-1l.5-3.5ZM554.5 254l.5 13.5h-1l.5-13.5ZM558.5 254l.5 6.5h-1l.5-6.5Z"/><path fill="#F7F5F1" stroke="#F7F5F1" d="m703.5 254 .5 13.5h-1l.5-13.5ZM615.5 256l.5 2.5h-1l.5-2.5ZM617.5 257l.5 2.5h-1l.5-2.5ZM619 259q3-1 2 2-3 1-2-2ZM236 261l2 .5v112l1 1v10l-1 1v50l3 1.5v8h-3v-7.5l-2-2V261ZM572.5 261l2.5 1.5-.5 11.5-.5-12-1.5-1ZM81.5 262l.5 2.5h-1l.5-2.5ZM81.5 266l.5 31.5h-1l.5-31.5ZM106.5 266l.5 82.5h-1l.5-82.5Z"/><path fill="#F7F5F1" stroke="#F7F5F1" d="M571.5 266q3-.9 1.5 3.5h-1l-.5-3.5ZM554.5 273l.5 25.5-1 5 1 5-1 2 1 1v42l-1 4v2l1 2v12q-2.7 1.8-1 8l1 1v16h-1l-1-10v-2q-1.4-10.9 1-18l-1-1v-84l1-1 .5-9.5ZM558.5 273l.5 12.5h-1l.5-12.5ZM703 273q3.5-1.1 2 6.5l-1 1-.5 18.5-.5-26ZM166.5 284l.5 20.5h-1l.5-20.5ZM101.5 286l.5 11.5h-1l.5-11.5ZM229.5 286l.5 11.5h-1l.5-11.5ZM566 286l2 .5v23l-1 1v12l1 1V335l-2-.5V286ZM104.5 298l.5 301.5h-1v-289l-1-5 1.5-7.5ZM627 298l2 .5V311l-2-.5V298ZM81.5 302l.5 54.5h-1l.5-54.5ZM634.5 304l.5 6.5h-1l.5-6.5ZM637.5 304l.5 6.5h-1l.5-6.5ZM703 304l2 .5v6.5l-2-.5V304ZM166.5 306l.5 22.5h-1l.5-22.5ZM715 317l2 .5v6.5l-2-.5V317ZM704.5 323l.5 25.5h-1l-1-13 1-1 .5-11.5ZM715.5 329l.5 6.5h-1l.5-6.5ZM558.5 336l.5 12.5h-1l.5-12.5ZM715.5 348l.5 6.5h-1l.5-6.5ZM166.5 349l.5 6.5h-1l.5-6.5ZM229.5 349l.5 4.5h-1l.5-4.5ZM622.5 349l.5 12h-3v-6h2l.5-6ZM166.5 358l.5 2.5h-1l.5-2.5ZM81.5 361l.5 2.5h-1l.5-2.5ZM557 361l2 .5v18h-1v-12l-1-6.5ZM574.5 361l.5 5.5h-1l.5-5.5ZM166.5 362l.5 2.5h-1l.5-2.5ZM81.5 365l.5 5.5h-1l.5-5.5ZM166.5 366l.5 20.5h-1l.5-20.5ZM572.5 374l.5 2.5h-1l.5-2.5ZM81.5 380l.5 5.5h-1l.5-5.5ZM106.5 386l.5 5.5h-1l.5-5.5ZM557 386l2 .5v12l-2-1V386ZM704.5 386l.5 6.5h-1l.5-6.5ZM229.5 387l.5 7.5h-1l.5-7.5ZM166.5 398l.5 31.5 1 3v2q1 3.8-2 2.5l1-6.5-1-1 .5-31.5ZM703.5 398l.5 6.5h-1l.5-6.5ZM81.5 399l.5 7.5h-1l.5-7.5ZM637.5 405l.5 5.5h-1l.5-5.5ZM554.5 411l.5 13.5h-1v-9l-1-1 1.5-3.5ZM556.5 417h2.5v6.5h-1q1.3-6.1-1.5-5.5v-1ZM85.5 423l.5 13.5h-1l.5-13.5ZM634 423q3.8-1 5 1.5 1.2 4.8-1 6l1 4v2l-.5 10.5-1.5-7.5 1-2.5q-5.2 1.8-3-5.5l-1-1V423ZM81.5 424l.5 8.5h-1l.5-8.5ZM640.5 425l.5 19.5h-1l.5-19.5ZM554.5 430l.5 6.5h-1l.5-6.5ZM703.5 430l.5 6.5h-1l.5-6.5ZM570.5 436l.5 4-3 .5 1 3-2.5 9.5q-2.2-.7-1.5-4.5l1-1V437l4.5-1ZM615.5 436l.5 3.5h-1l.5-3.5Z"/><path fill="#F7F5F1" stroke="#F7F5F1" d="m632.5 436 1.5.5v11q3.5 1.5 1 3l1 5v2q1.5 5.3-3 3.5.9-7.6-2-12.5v-11l1.5-1.5ZM191.5 438l.5 2.5h-1l.5-2.5ZM554.5 439l.5 3.5h-1l.5-3.5ZM166.5 440q2.8 1.3.5 2.5l1 2-2-1 .5-3.5ZM616.5 441l.5 10.5h-2l1 4-1.5 8.5-.5-12.5 2-4v-2l.5-4.5ZM703.5 442l.5 7.5h-1l.5-7.5ZM254.5 443l.5 1.5-1.5 2.5-.5-1.5 1.5-2.5ZM190.5 446l.5 2.5h-1l.5-2.5ZM553.5 446l-1 2 1-2ZM550.5 448q3 1.5 0 3v-3ZM85.5 449l.5 24.5h-1l.5-24.5ZM168.5 449l.5 3.5-2 1 1.5-4.5ZM569.5 449l.5 3q3 1.3 2-2.5h1l.5 3.5q1.3-2.2 2.5.5h-2l-1.5 4.5-.5-3-4.5 1v-1l1.5-.5.5-5.5ZM628 449l2 .5v11l3 2-3 7 1 3-2.5 1.5q-2.7-1.2-.5-2.5-1.5-5.5 1-7l-1-1V449ZM638.5 449l1.5 4.5-1.5 2.5v-7ZM81.5 451l.5 7.5h-1l.5-7.5ZM192.5 451l.5 3.5-1.5 3.5-.5-2.5 1.5-4.5ZM254 451l2.5 1 1.5-.5q-2.2 1.3.5 2.5l2.5 1.5q-1.1 3.3 1.5 2.5l1.5-.5-5 2 1 3.5h-5v-2.5l5-3-2.5-3.5-3-1-.5 1.5v2q1.1 3.3-1.5 2.5-2.2-.7-1.5-4.5l3-1.5v-2ZM550 452l2 .5-.5 1.5 2.5 1.5q1 3.8-2 2.5l-1.5-3-3.5 1.5v3.5q3-1 2 2-3.8.8-5-2.5l1-4.5q2.7 1.1 2-1.5l1.5.5q2.6.7 1.5-2ZM169.5 454l1.5 4.5-2.5 3.5-.5-2.5 1.5-5.5ZM703 455l2 .5v6.5l-2-.5V455ZM542.5 457v3q-3.3-1.1-2.5 1.5l-4 1.5q1.1-2.7-1.5-2v-1l3 1 5-4ZM568.5 457l1.5 5.5h-1q.8-2.2-1.5-1.5l-1-2q2.5.7 2-2Z"/><path fill="#F7F5F1" stroke="#F7F5F1" d="m637.5 457 1.5 2.5-2 1 .5-3.5ZM265.5 458l.5 2-2-.5 1.5-1.5ZM192.5 459l2.5 4.5-1.5 2.5-1-7ZM270.5 460l1.5.5-2.5 1.5 1-2ZM558.5 460h6.5v3.5l-3.5 1.5H556v8.5l-3 1.5q-1.6-2.1-1-7.5l1.5-3.5 2.5 1v-4h1.5l1-1ZM87.5 461l.5 12.5h-1l.5-12.5Z"/><path fill="#F7F5F1" stroke="#F7F5F1" d="m189.5 461 2.5 5.5-1 4 1 3.5q4.1 1.7 3-2.5l-2-4h2l.5-1.5.5 1.5-1 3h2l-1 3 .5 1.5-1.5-.5-1 6-1.5 1.5q-3.7 1.3-2.5-2.5l1-1V471q-2.7-1.1-2 1.5h-1l1-5-1-3 1.5-3.5ZM275.5 461l9 1 4-1 1 1h12l1-1h229l2.5 1.5-3.5.5-2-1-1 1h-254v-1l2-1ZM175 462q4.5-1.7 3 3.5l-1.5 4.5q-2.6-2.5-1.5-8ZM237.5 463l2.5 1-.5 2q-1.8-3.1-3.5-1.5l1.5-1.5ZM636 463q3.3-1.3 2 3.5h-1l-1-3.5ZM568.5 464l2.5.5q-2.1 3.3-2.5-.5ZM248 465h5v6.5l-.5 1.5h5l6 2 1-1h9.5l-1.5 3h-7l-4 2-3-3q-5.2 1.3-6.5-1.5-4-3.2-4-9.5ZM312.5 466h2l68 2 1-1H528l-.5 4H490l-.5-3H478l-.5 3h-177q.6 2.8-2.5 2l-.5-2h-20l-.5-4h25.5l5 1 5-2ZM567.5 466v3q-1.5-2.5-3 1l-3 1-1-2q1.5 2.5 3-1l4-2ZM613 466q2.7-1.1 2 1.5 3.5 1.5 2 8l-1 2.5-4-2.5q3.3-1.2 2-7h-2l1-2.5ZM238.5 467h2l4.5 3.5-3.5-2.5-2 1-1-2ZM634.5 469l1.5 4.5-2 .5.5-5ZM172.5 470l1.5 6.5-.5 1.5 2.5-1.5.5-1.5.5 2.5-1 1 1.5 2.5-3 1 .5-1.5q.8-2.2-1.5-1.5l-2.5-5.5 1.5-3.5ZM241.5 471l1 2-1-2ZM560 472l2 .5-2.5 4.5q-1.2-2.2-2.5.5.8 2.3-1.5 1.5l-2 1 1-2 3-2 2.5-4ZM609.5 472l1.5 2.5-1.5 2.5-1.5-2.5h2l-.5-2.5ZM246.5 473l3 4-3-4ZM539.5 473q5.4-1.9 4.5 1.5l-4 1.5q-1.4 4 5.5 2 1.5-3.5 8-2l-1 2q-5.5-1-6.5 2.5l2 1-2.5 1.5v-2H540v2.5l.5 1.5-4 1q-4.8-2.5-3-5h-18l-1 1-4-1q-1.5 2.5-7 1-1.5-2.5-7-1h-13l-1 1-2-1-3 1-3-1-2 1h-2l-2-1h-18l-2 1-1-1h-42l-3 1-2-1h-18l-2 1-3-1h-18l-2 1-3-1-2 1-1-1h-18l-3 1-2-1h-2l-9 1-4-1-3 1-2-1-2 1h-2q-5.5-2.5-15-1h-15l-.5-4h254.5l3-1 3.5 2-1 2.5 1.5.5 3-1 1.5.5-1.5-3.5-2.5-1.5q-.8-2.6 2.5-1.5l1-1ZM198.5 475l-1 2 1-2ZM633.5 475l1 2-1-2ZM632.5 477l-.5 1.5-1.5 4.5-1.5-2.5 3.5-3.5ZM254.5 479l1 2 3-1 2 3H258q1.1-2.7-1.5-2-1.3 2.3-2.5-.5l.5-1.5ZM199.5 480l2.5.5q-2.1 3.3-2.5-.5ZM608.5 480l-1 2-1.5-.5 2.5-1.5ZM267.5 481l6.5 1.5v2q.8 2.6-2.5 1.5l-5-3-3 1 1-2 3-1ZM611 482q3.8-1.5 3 1.5l2 3q-1 2.5-5.5 1.5-2.7-1.2-.5-2.5l1-3.5Z"/><path fill="#F7F5F1" stroke="#F7F5F1" d="m195.5 483 5 1q1.3-2.2 2.5.5h-2l-1 3.5h-6v-3.5l1.5-1.5ZM605.5 483l1.5.5-2.5 3.5-1.5-.5 2.5-3.5ZM175.5 484l2.5 1.5 3 6h-1l-1.5-2.5q-2.2.8-1.5-1.5l-1.5-3.5ZM183.5 485l2.5 1.5 1.5 3.5 2.5 1.5q1.3 6.1-1.5 5.5l-6.5-10.5 1.5-1.5Zm3.5 7v2l2 1q1-4-2-3ZM322.5 485l2 1 2.5-1q1.4 4-5.5 2l1-2ZM342.5 485l1 1 10.5.5-13.5.5v-1l2-1ZM365.5 485l17 1 2-1h2l3 1q1.5-2.5 7-1l1 1 24.5.5-64.5.5v-1q6.3 1.7 8-1ZM428.5 485l1 1 10.5.5-15.5.5v-1l4-1ZM453.5 485l3 1 2-1 .5 2-12-.5 6.5-1.5ZM504.5 485l11 1 4-1 2 1q1.3-2.2 6-1l2.5 1.5-35.5.5v-1h9l1-1ZM622.5 485q2.3-.7 1.5 1.5l1.5-.5q2.3-.7 1.5 1.5l1 4q-2-1.7-4 2l-2 5 .5 1.5q-2.7-1.3-.5-2.5l1-5.5q2.7 1.1 2-1.5l-1.5.5-5.5-1 1-4 3.5-1Zm3.5 2q-3 4 1 3l-1-3ZM281.5 486l14.5.5-14.5.5v-1ZM297.5 486l3.5.5-3.5.5v-1ZM302.5 486l11.5.5-11.5.5v-1ZM329.5 486l3.5.5-3.5.5v-1ZM460.5 486l4.5.5-4.5.5v-1ZM481.5 486l9.5.5-9.5.5v-1ZM206.5 487l5.5 5.5q-2.2 1.3.5 2.5l1-1 3 3 2.5.5-1.5 2.5-2-3H211q2.1 5.2-2.5 4l-2-1h-2q-2.6.7-1.5-2h-2v-7l3 1.5q-1.5 4.4 1.5 3.5l2 1h2l2.5-1.5-3-1 1-1-3.5-6.5Z"/><path fill="#F7F5F1" stroke="#F7F5F1" d="m204.5 489 2.5 1.5-1.5.5-1-2ZM600.5 489q1.8 3.1 3.5 1.5v2q1.5 7-2.5 8.5l-7.5-1.5 3.5-1.5 3.5-1 1-3.5-.5-2.5-2 1-.5-1.5 1.5-1.5ZM616.5 489q2.6 2.4 1.5 8.5l-2 1 .5-9.5ZM181.5 493l1 2-1-2ZM592.5 494v2l3-1-1 2-5.5 1.5q3 3.3 2 9.5-4.5 1.8-3-3.5l1-2-1-2.5-4 1.5.5 1.5-6.5 3.5 1 3.5 8-1v3h-8q1.3-3.3-3.5-2-1.2-2.3-2.5.5l-1.5 2.5q-5.2 1.3-6.5-1.5V510h7.5l.5-1.5q-1.4-2.6-6-2l8-2-.5-1.5 3.5 2.5-1-3h1v1.5h4l1-2.5-.5-1.5 4-2 1.5.5q-.7-2.2 1.5-1.5l3-3ZM183.5 496l1.5 2.5h-1l-.5-2.5ZM195.5 498l3.5 1q1.4 4-5.5 2l-2.5-1.5 4.5-1.5ZM608.5 498q5.9-2.1 4.5 2.5l-6 3.5q.8 3.8-2.5 5l-2.5-1.5q-.7-3.7 1.5-4.5l3.5-1.5 1.5-3.5ZM219.5 499q3.3-1.1 2.5 1.5h2q-1.3 4.6 4.5 2.5l1.5-.5q.9 3-3.5 1.5h-2l-3.5-1q1.5-3.7-1.5-3v-1ZM619.5 499l.5 1.5-4 3 3.5-4.5ZM184.5 500h2l3.5 3.5 1 2-2 .5-1.5-4-1 1-2-3ZM214 500q2.7-1.1 2 1.5l1 3-1 3.5-2-.5V500Z"/><path fill="#F7F5F1" stroke="#F7F5F1" d="m199 502 4 1.5q1.5 5.5-1 7l1.5.5 6.5-1 1.5 4h4.5v4h3.5l1.5.5-2 .5-.5 2-2-1-.5 2.5.5 1.5q1.5-3.5 3-1h2.5q-1.1 2.7 1.5 2l-1 2-2-3-4 1-2.5-1.5 1-2h-2l3-1.5q1.3-3.3-3.5-2-1.8-5.5-9.5-4l-1.5-3q-2.2.8-1.5-1.5l-1-1V502Zm14 13 1 2q1-3-1-2ZM701.5 502l.5 10.5-1 1v272l.5 1.5-1.5-1.5v-273l1-1 .5-9.5ZM232.5 503l1.5.5-2 1 2 1-1.5.5q-3-1.5 0-3ZM619.5 503l-4 5-2.5-1.5 2.5-1.5 1 1 3-3ZM192.5 506l2.5 1.5 1 3.5-2-.5 1-1-2.5-3.5ZM227 507h4v1.5l-4 1.5v-3ZM242.5 507l2.5.5-2.5.5v-1ZM255.5 507l4.5.5-7.5 1.5v-1l3-1ZM265.5 507l24.5.5-24.5.5v-1ZM352.5 507l12.5.5-12.5.5v-1ZM516.5 507l12.5.5-12.5.5v-1ZM544.5 507l6.5.5-6.5.5v-1ZM611.5 507l-1 2 1-2ZM557.5 508l3.5.5-3.5.5v-1ZM264.5 509l25.5.5-24.5.5-1.5 1.5-.5 1.5h-8l-2.5-1.5 11.5-2.5ZM352.5 509l12.5.5-12.5.5v-1ZM516.5 509l11.5.5-11.5.5v-1ZM613.5 509l-1 2 1-2ZM221 510q5.2-1.7 4 2-5.2 1.7-4-2ZM232 510h9.5l2 1q1.3-2.2 2.5.5l-1.5 1.5h-11l-1.5-3ZM291.5 510l7 1q1.3-2.3 6-1h2l2 1h12l5-1 1 1 25.5.5-61.5.5 1-2ZM403.5 510l1 1 10.5.5-23.5.5v-1h11l1-1ZM429.5 510l3 1 7.5.5-18.5.5v-1q6.2 1.7 8-1ZM490.5 510l2 1 3-1 1 1 18.5.5-35.5.5v-1h10l1-1ZM547.5 510l-1 2-1.5-.5 2.5-1.5ZM550.5 510q2.6-.7 1.5 2l-3-.5 1.5-1.5ZM595 510l3.5 1 2-1q3 1.5 0 3l-6.5 1-1.5 4q-3.7 1.3-2.5-2.5l5-3V510ZM366.5 511l10.5.5-10.5.5v-1ZM454.5 511l10.5.5-10.5.5v-1ZM471.5 511l6.5.5-6.5.5v-1ZM529.5 511l10.5.5-10.5.5v-1ZM85.5 512l.5 12.5h-1l.5-12.5ZM87.5 512l.5 12.5h-1l.5-12.5ZM196.5 512l1 2-1-2ZM200.5 513l3 4 1.5-.5q-1.5 3-3 0l-.5-1.5-1.5.5.5-2.5ZM601.5 516q2.3-.7 1.5 1.5h-3l1.5-1.5ZM206.5 517l1 2-1-2ZM586.5 518l.5 2-3-.5 2.5-1.5ZM209.5 519l-1 2 1-2ZM595.5 519l1.5.5-2.5 1.5 1-2ZM586.5 521l2.5.5-2.5.5v-1Z"/><path fill="#F7F5F1" stroke="#F7F5F1" d="m592.5 521-.5 1.5q.8 2.3-1.5 1.5h-2q-4.2-.7-5 2l.5-1.5q-.5-3 6.5-1.5l2-2ZM252.5 523h11l.5 2.5-1.5 1.5-17 1-6.5 3v-5h-1.5l-1.5.5-.5-1.5-2.5 1.5 4 2-2.5.5-4.5-1 .5-3 2 1v-2l2 1 4.5-1 .5 2h7l6-3ZM566 524l7 .5-7 1.5q-1.5 3.8 1.5 3v1l-10-2H528l.5-2h37l.5-2Zm-4 3v1h3l-3-1ZM704.5 524l.5 12.5h-1l.5-12.5ZM298.5 525l2 1h22l4-1 1.5 2.5-6.5 1.5-1-1h-43l-.5-2h20.5l1-1ZM442.5 525l2 1h2l2-1 2 1q1.2-2.2 2.5.5l-.5 1.5H440q-1.1-2.7 1.5-2l1-1ZM483.5 525l1 1h31l.5 2h-8.5l-1 1-1-1H478q-1.4-3.7 4.5-2l1-1ZM226.5 526l1.5.5-3.5 1.5v-1l2-1ZM577.5 526l3.5.5-3 1 .5 1.5-5-1-3 1v-1l7-2Z"/><path fill="#F7F5F1" stroke="#F7F5F1" d="m244.5 530 5.5 1.5-4.5.5h-2l-1.5-.5 2.5-1.5ZM255.5 530l21 1 1-1h48l2 1h113l1-1h10l1 1h25l1-1h36l1 1h13l1-1h23l4.5 1.5-3.5.5-6.5-1q1.4 4-5.5 2l-8-2h-2q-5.9 2.6-16 1l-1-1h-17l-6 1q-1.3-2.2-6-1l-4 1-2-1-1 1h-26l-2-1q-1.5 2.5-7 1h-116l-2-1h-2l-6 1-2-1-2 1-3-1-7 1-3-1-42 2v-1l5.5-.5-8.5-.5v-1ZM561.5 530l4.5 1.5-5.5.5 1-2ZM85.5 537l.5 12.5h-1l.5-12.5ZM704.5 549l.5 13.5h-1l.5-13.5ZM704.5 568l.5 6.5h-1l.5-6.5ZM85.5 574l.5 13.5h-1l.5-13.5ZM87.5 575l.5 11.5h-1l.5-11.5ZM703.5 580l.5 7.5h-1l.5-7.5ZM85.5 599l.5 12.5h-1l.5-12.5ZM704.5 599l.5 6.5h-1l.5-6.5ZM87.5 600l.5 11.5h-1l.5-11.5ZM101.5 600l.5 5.5h-1l.5-5.5ZM105.5 602l.5 4.5h-1l.5-4.5ZM104.5 612l.5 12.5h-1l.5-12.5ZM101.5 625l.5 11.5h-1l.5-11.5ZM105.5 627l.5 2.5h-1l.5-2.5ZM104.5 638l.5 73.5h-1l.5-73.5ZM704.5 643l.5 6.5h-1l.5-6.5ZM85.5 662l.5 25.5h-1l.5-25.5ZM704.5 675l.5 12.5h-1l.5-12.5ZM704.5 693l.5 13.5h-1l.5-13.5ZM704.5 712l.5 6.5h-1l.5-6.5ZM101.5 713l.5 10.5h-1l.5-10.5ZM104.5 725l1 76 1-7 .5 10.5-2 1-1-5 .5-75.5ZM81.5 741l.5 6.5h-1l.5-6.5ZM81.5 752l.5 7.5h-1l.5-7.5ZM85.5 775l1 26q1.3-2.2 2.5.5l-2 10 3 1q1.7 12.7-1 21l1 4.5-2.5-1-1.5.5 1-2v-22l-2-2 .5-36.5Z"/><path fill="#F7F5F1" stroke="#F7F5F1" d="m87.5 775 .5 13.5h-1l.5-13.5ZM703.5 775l.5 12.5h-1l.5-12.5ZM723.5 776l1.5 37.5h-1q1.8-6.2-1-8l.5-29.5ZM703.5 792l.5 2.5h-1l.5-2.5ZM703.5 800l.5 2.5h-1l.5-2.5ZM82.5 801l.5 12.5h-1l-1-7 1-2v-2l.5-1.5ZM101.5 801l1.5 6.5-1 5 1 1v12l1 5 3 5v9q.8 2.3-1.5 1.5l-3 6-2.5-3.5 1-2-1-2h2l1-4V831l-3-.5v-13l1-1 .5-15.5Zm2.5 37v4l2-1q1-4-2-3ZM105.5 807l.5 8.5h-1l.5-8.5ZM700.5 807l1 6 1-4 1.5 5.5-3 1-.5 2.5-1.5-7.5 1.5-3.5ZM83.5 815l.5 3.5h-1l.5-3.5ZM703.5 816l1.5 3.5v14l-2 3 1 2-3 1.5 2-5.5-1-1v-14l1.5-3.5ZM721.5 820l.5 2.5h-1l.5-2.5ZM106.5 821l.5 2.5h-1l.5-2.5ZM699.5 821l.5 2.5h-1l.5-2.5ZM84.5 822l.5 3.5h-1l.5-3.5ZM108.5 823l.5 3.5-1 5 1 2-2-1 1.5-9.5ZM697.5 824l1.5 5.5h-1l-.5-5.5ZM720.5 827l.5 3.5h-1l.5-3.5ZM85.5 831l.5 1.5-1.5 3.5-.5-3.5 1.5-1.5ZM110.5 835l-.5 1.5-.5 1.5-.5-1.5 1.5-1.5ZM696.5 838l.5 2.5h-1l.5-2.5ZM700.5 841l1.5 9.5-2.5 1.5q-2.2-.7-1.5-4.5l2.5-6.5ZM89.5 842l.5 1.5-2 1 1.5-2.5Z"/><path fill="#F7F5F1" stroke="#F7F5F1" d="m110.5 842 2 5 1.5-.5-1 1 1.5 2.5q-2.2.8-1.5-1.5l-2.5-1.5.5 1.5-1.5 3.5-3.5-1.5 2-5.5q3.1 1.1 2.5-3ZM717.5 843l.5 1.5-1 3.5q-2.7 1.1-2-1.5l2.5-3.5ZM694.5 846l-.5 1.5-.5 2.5-1.5-2.5 2.5-1.5ZM92 848q3-1 2 2-3 1-2-2ZM95.5 849l3.5 1 1 10 3 1.5-1 4v2q.7 2.6-2 1.5l-5-15.5.5-4.5ZM691.5 850l1 2-2 1 .5-1.5.5-1.5ZM704 850q4.1-1.7 3 2.5l2 1q-1.5-5.2 3-3.5l-.5 4-1.5-.5-1 7 1 1-3 3-2.5 7.5-.5-9q3.5 1.1 2-6.5-2.8-2-2-6.5ZM88.5 851l2.5 1 1 2.5-1.5-.5q-2.2.8-1.5-1.5l-.5-1.5ZM113.5 851q2.3-.7 1.5 1.5l.5 1.5q-2.2-.7-1.5 1.5l2 3-1 2h4l-1 2.5 2 .5-2 1-1.5-3.5q-1.7 2.8-3.5-1.5l.5-1.5 1.5.5-2-4 1-2-.5-1.5ZM715 852l2 .5-1 2.5q-2.7-1.1-2 1.5h-1V854q3 1 2-2ZM691.5 854l.5 2 2 .5-3.5 1.5.5-1.5.5-2.5ZM92.5 856l1.5 3.5-2-1 .5-2.5ZM711.5 857l1.5 2.5h-1l-.5-2.5ZM712 861q3-1 2 2l-2.5 1 .5-1.5V861ZM113.5 863l2.5 5.5-3 2 .5-7.5ZM686.5 863h2l3.5 1-.5 4-3-4-2.5 1 .5-2ZM120.5 865l-1 2 1-2Z"/><path fill="#F7F5F1" stroke="#F7F5F1" d="m95.5 866 4 6q2.3.8 1.5-1.5h1l-1 4.5h7.5l1.5 1.5 1.5 2.5q3.3-1.1 2.5 1.5 2.8 1.8 1 8v2l-1 6.5q-3-1.2-2 2.5 2.3 1.3-.5 2.5l-.5-2.5-1.5-3.5-1.5.5.5-2.5 3.5 2q1.3-4.6-1.5-6-2.6.7-1.5-2 4 1.4 2-5.5l-1-2.5-8-2-1.5-3-1.5.5-3.5-7.5-1.5.5 1.5-2.5ZM686.5 867l.5 3.5-2.5 1.5-1-2q1.2 2.2 2.5-.5l.5-2.5ZM709.5 867l.5 1.5-1.5 3.5-.5-2.5 1.5-2.5ZM116 872l4 1.5 2 3q-1.2 2.8-2.5.5l-3.5-1.5V872Zm1 2q-1 3 2 2 1-3-2-2ZM682.5 872l1 2-1-2ZM687 872l3 1.5q1.1 4.2-3 2.5v-4ZM709.5 873l-.5 1.5-.5 1.5-.5-1.5 1.5-1.5ZM123.5 874l.5 2 3 1.5-1.5 2.5 2-1-.5 1.5q.8 2.3-1.5 1.5l-1.5-.5q.7 2.6-2 1.5l-1-3.5q2.8-1.2 2.5-5.5Zm.5 3v2l2-1-2-1Z"/><path fill="#F7F5F1" stroke="#F7F5F1" d="m681.5 874 3.5 5-2 .5 3 2q-.7-2.2 1.5-1.5 1.1-2.7 4.5-2l1 4.5-6 5v1.5h-4q-.7-3.4 2-4.5l-1-2.5-5-3.5 1.5-2.5 1 2 .5-2.5-.5-1.5ZM678.5 880l1 2-1-2ZM703 880l2 .5-2.5 5.5-1-2-1.5 3.5 1.5-.5 1.5.5-2.5 1.5q-1.7-3.7-3.5-.5l1 2-3.5 2.5-.5-6 4-.5-1-2h2l-1-3h1l.5 1.5.5-2q2.7-1.1 2 1.5h1V880ZM102.5 882l3.5 1 2 3.5-2 3q2.3 1.3-.5 2.5v-2l-1.5-.5 2-3-2-.5-1.5-3-1.5.5 1.5-1.5ZM128.5 883l2.5 1.5-2 1 .5-1.5-1-1ZM675.5 885l2.5.5-2 3 1 2.5 3 1.5v5.5q-4.9-1.6-3 4h-3.5q-2.7-1.2-.5-2.5l1.5-2.5q2.6.8 1.5-2.5l1-3-2-3 1-2-.5-1.5Zm-1.5 14v2l2-1-2-1Z"/><path fill="#F7F5F1" stroke="#F7F5F1" d="M125 886q3.8-1.5 3 1.5l-3 1.5v-3ZM130.5 887l2.5.5v2l2.5 5.5 2-1v2l1.5.5-3 1 1 2-4.5 2.5-3.5-1v-4h1.5l1.5.5.5-1.5 2 1-1.5-2.5-2.5-7.5Z"/><path fill="#F7F5F1" stroke="#F7F5F1" d="M126 890q3-1.2 2 2.5v2q1 3.8-2 2.5v-7ZM698.5 892l1 2-1-2ZM670.5 893l1 2-2.5-.5 1.5-1.5ZM691 893q3.7-1.4 2 4.5l1.5 2.5-2 1-2.5-4.5 1-3.5Z"/><path fill="#F7F5F1" stroke="#F7F5F1" d="M696.5 896q3 1.5 0 3-3-1.5 0-3ZM667.5 897l2.5.5-3 2 .5-2.5ZM138.5 898l1.5 2.5-2-1 .5-1.5ZM117 900l2.5 1h2l2.5.5-1 2.5-4 1 2.5 4h1.5v-4h3.5l1.5 1.5.5 6.5q1.2-2.2 6-1l1.5 4 4 1.5q1.3 5.3-1.5 6.5l-2.5-1.5-6.5-7.5q-2.6.7-1.5-2h-4.5v2l-3-3q-1.2 2.3-2.5-.5h2v-2l-4.5-4.5-1.5.5 1-3 .5-1.5 1.5.5V900Zm5 10-1 2 2 1-1-3ZM681 900h5v2.5q-3.7 3.8-4 11l.5 1.5-1.5-.5 1 3-1.5.5-2.5-1q-1.1 2.7 1.5 2l-.5 1.5-1 2q2.7 1.7-1.5 3.5l-1-1-2.5 1.5q3.8-1.7.5-3.5l-1.5.5 1-3q-4.5-1.7-3-8.5 5.5-1.2 7 2.5l.5 2.5 1-5 1.5.5 1-12.5ZM142.5 901l3.5 3.5-.5 2.5-2-1-1.5.5.5-1.5q-2.6.8-1.5-2.5l1.5-1.5Zm.5 1-1 2 3 1-2-3ZM664.5 901l1.5 2.5-.5 2.5-6 4-1-1-2.5 1.5 8-6 .5-3.5ZM690.5 901l2.5 1.5-3 1.5.5-3ZM690.5 905l-1.5 2.5-2.5 3.5 1.5-2.5 2.5-3.5ZM139.5 906l1.5.5-1 3.5q-3 1.3-2-2.5l1.5-1.5ZM146.5 908l.5 2 2.5 1 1.5-.5q.7 3-3 1.5v2h-7q-1.3-3.3 3.5-2l2-4ZM665.5 910q2.6-.8 1.5 2.5l-3 1.5 1.5-4ZM658 911l2 .5-1 3q.8 2.6-2.5 1.5-1.2-2.2-2.5.5 2.3 1.3-.5 2.5-6 .5-8 5l5-8-1 3 4.5-3.5q-.7-2.2 1.5-1.5l2.5-1v-2ZM153.5 913l2 4q2.3-.7 1.5 1.5l-3 1q-1.8 6.1 5.5 3.5l-1-5 11.5 8.5.5 1.5 1.5-.5.5 1.5 1.5-.5-.5 1.5 3.5.5-.5 2.5-8-6H166l-2.5-4h-2l-1.5.5 1 2-1.5 1.5H153l-1.5-3q-3.4.9-1.5-4.5l3.5-6.5Zm3.5 11q-2 3 1 2l-1-2Z"/><path fill="#F7F5F1" stroke="#F7F5F1" d="m122.5 916 2.5.5q-2.1 3.3-2.5-.5ZM656.5 918l1.5 2.5-2-1 .5-1.5ZM128.5 920q2.3-.7 1.5 1.5l-1.5-1.5ZM131.5 921l.5 2.5h-1l.5-2.5ZM128.5 923l1 2-1-2ZM642.5 923l1 2-3 2 .5-1.5 1.5-2.5ZM666 923q2.7-1.1 2 1.5l1 3-3 1.5v-6ZM132.5 925q-1.7 2 2 4l.5-3 3 1.5-.5 2.5-2-1 1 3-5.5-5.5 1.5-1.5ZM141.5 925h6.5v5q-5.7.4-8-3.5l1.5-1.5ZM638.5 926l3.5 4.5v3l-3 1.5q1.5-3.7-1.5-3h-2l-4.5 2.5-.5 1.5-3.5-1 .5-2 2 1 1-3v2l2.5-1.5-.5-1.5 2 1 3.5-2.5.5-2.5Z"/><path fill="#F7F5F1" stroke="#F7F5F1" d="M658 926q5.6-2.2 4 3.5l-1 3 1.5-.5 4 1 1.5-.5-6.5 5.5-1.5-3.5.5-1.5-7.5 1 1.5-4 3.5-2.5V926ZM670.5 928l1.5.5-3 2 1.5-2.5ZM149 931l4 1.5-1 4.5-3-1.5V931ZM140.5 932l4.5 2.5 1 3-2-1-1.5-2.5-2-2ZM163 932q8.1.3 12.5 5h4.5l-1.5 3-3.5-1.5-.5-1.5h-7l-4.5-1v-4ZM181.5 933v2l3.5 1.5-1.5.5-3.5-2.5 1.5-1.5ZM625.5 934l.5 1.5-.5 1.5 2-1v3l-4-2q-1.2 2.3-2.5-.5h2q-.7-2.2 1.5-1.5l1-1ZM633.5 936q3.8-.7 4.5 1.5v2.5h-5.5l-1.5-3 2.5-1ZM665.5 936l-3 4 3-4ZM158.5 937q3.8-1.2 2.5 2.5l-2.5 1.5q-1.7-2.7-3.5 1.5l1 2-3.5-2.5-1.5-.5 4-.5 1.5-3 2-1ZM147.5 938q2.3-.7 1.5 1.5l.5 1.5-2-3ZM192.5 938l2.5 1q-1.1 2.7 1.5 2l2 1 2-1-1 2-6.5-1-1.5 4q-5.2 1.8-3.5-3.5l4-3 .5-1.5Zm.5 2-2 2h2v-2ZM617.5 938l3.5 2q1.3 3-2.5 2v-2l-3 2-7.5 2.5 3.5 1.5q4.3.8 5-2l.5 2.5v3.5h-12.5l-.5 2h-2.5l-3-1-1.5.5q.8-2.2-1.5-1.5v-1l3 1h2l3.5-2.5-3-1.5.5-2 2.5 1q-1.1-2.7 1.5-2l2-1 3 1 5.5-2 1.5-3Zm-13.5 7 1 2 2-1-3-1Z"/><path fill="#F7F5F1" stroke="#F7F5F1" d="m649.5 939 1.5 4 4 .5-6.5 4.5-.5-1.5 2.5-3.5-10.5 2q-2.1-5.2 2.5-4l7-2ZM653.5 939q3.8-1 2.5 2l-2.5-2ZM657.5 941l2.5.5-1.5 1.5-2.5-.5 1.5-1.5ZM202.5 942l1.5.5-2.5 1.5 1-2ZM163 943q3-1 2 2l-2 .5 2 .5q1 3-2 2v2.5l1.5-.5 3.5.5q-1.2 2.7-2.5.5l-2 1-4.5-5.5 4-2V943ZM209.5 944l-1 2-2.5-.5 3.5-1.5ZM211.5 945l2.5 1.5-3 .5.5-2ZM598.5 945l1 2-3 1v-1q2.5.7 2-2ZM196.5 946q7.3-2.2 5.5 3h-6.5l-.5 2h-1.5l-3 1q-4.5-2-1-4 5.8 1.3 7-2ZM217.5 948l2.5.5-2.5.5v-1ZM226.5 948l.5 2-5-.5 4.5-1.5ZM584.5 948l3.5 1.5-2.5.5-1-2ZM591.5 948l2.5.5-2.5.5v-1ZM205.5 949q6.2-1.7 8 1l1.5-.5-1.5 2.5q-6.4.9-9.5-1.5l1.5-1.5ZM230.5 949q2.3-.7 1.5 1.5l-1.5-1.5ZM577.5 949l.5 2q-2.4 1.7-8.5 1l-1.5-.5-.5 1.5-1-1-13.5-.5 14.5-.5 2-1 3 1 5-2ZM580.5 949l3.5 2.5-4 .5.5-3ZM173 950h4.5q-1 3 4 2l1 1h7.5q2.2 5.6-3.5 4l-2.5 1.5 2 .5v2h4v1.5l1 2h-1l-1.5-2.5-3 1-1-3-4.5-1q-1.1-2.7 1.5-2v-1l-8.5-3v-3ZM236.5 950l6 1 2-1 1 2-10.5-.5 1.5-1.5ZM629.5 950q2.6-.8 1.5 2.5l-3.5 4.5-7.5-1-1 3.5.5 1.5H615v-5h5v-1.5q1.9-3.2 8-1.5l1.5-3Zm-3.5 4q0 4 2 1l-2-1Zm-10 4q-1 3 2 2 1-3-2-2ZM640.5 950h2l3 1 1.5-.5q-1.2 2.7-2.5.5l-3 1-1-2ZM248.5 951l12.5.5-12.5.5v-1ZM264.5 951l2.5 1.5-1.5.5-1-2ZM272.5 951l4 1 1.5-.5q-.7 2.3-4.5 1.5l-1-2ZM291.5 951l41.5.5-7.5 1.5-2-1h-2l-2 1-2-1h-4l-2 1h-2l-2-1h-2l-3 1-3-1-5 1-3-1v-1ZM339.5 951q5.3-1.2 6.5 1.5l-1.5-.5-2 1-3-1v-1ZM353.5 951h179l.5 2h-14.5l-1-1-2 1h-49l-1-1-2 1h-18l-1-1h-2l-5 1h-37l-1-1-1 1h-34l-3-1-1 1h-13v-1q4.8 1.2 6-1ZM544.5 951l2.5.5-2.5.5v-1ZM639.5 952l1.5 2.5-1.5-.5q-4.6-.6-6 2v-1l6-3ZM562.5 955l2.5.5-1 2.5-10-1-.5 4H540v-4h6.5l1-1h14l1-1ZM175.5 956l-1 2 1-2ZM253.5 956H265v5h-12.5l-.5-3.5 1.5-1.5ZM568.5 956l.5 2-3-.5 2.5-1.5ZM177.5 957l-1 2 1-2ZM339 957h13.5l.5 4h-13.5l-.5-4ZM453 957h12.5l.5 4h-12.5l-.5-4ZM471.5 957l6.5.5-6.5.5v-1ZM624.5 959l1 2-1-2ZM622.5 961l-.5 1.5-.5 1.5-.5-1.5 1.5-1.5ZM194.5 962l1.5.5-.5 2.5-3.5-1.5 2.5-1.5ZM207.5 963l3 1 3.5-1q1.4 4-5.5 2l-1-2Z"/><path fill="#F7F5F1" stroke="#F7F5F1" d="M226 963h16.5l1.5 1.5q.8 2.3-1.5 1.5-1.5 2.5-3-1h-12l-2 2-5.5 1q1.5 3.8-1.5 3v1l8.5-1q-1.2-3 2.5-2l1-1h8l1 3 8.5 1.5-4 1 5 1-4.5 1.5-3-2q-1.8 2.7-8 1l-4-2-5 1v-1l1.5-.5-3.5-.5-4 1-2.5-1.5.5-1.5-3.5-.5 2.5-4.5h10l.5-2Zm2 8v2l2-1 6 2 4-1-1-2h-11Z"/><path fill="#F7F5F1" stroke="#F7F5F1" d="M581.5 963h9q-.8 3.3 4.5 2l.5-2H607q1.3 3-2.5 2h-2l-6.5 1 2 3.5-1.5.5-5-1-1 2q2.6-.7 1.5 2l-7.5 1 1-2 4.5-.5-10.5-.5-1.5-1.5q.8-2.6-2.5-1.5-5.7 3.3-15 3-1.5-2.5-7-1l-1 1h-18l-1-1h-17q-1.5 2.5-7 1l-1-1h-17q-1.5 2.5-7 1l-1-1h-62q-1.2 2.3-6 1-1.5-2.5-7-1-1.3 2.3-6 1l-1-1h-18q-1.2 2.3-6 1l-5-1-1 1h-13l-1-1h-17q-1.5 2.5-7 1l-1-1h-30l-1 1h-30q-1.5-2.5-7-1-1.3 2.3-6 1l-6.5-1q1.1 2.7-1.5 2l-5.5-2.5 1-3.5h331.5q4.5 3.7 13.5 2v-3h-8.5l-1-2Zm.5 6v1h2l-2-1ZM618.5 963l1 2-1-2ZM197.5 965l1.5.5-2.5 1.5 1-2ZM610.5 965l4.5.5-4.5.5v-1Z"/><path fill="#F7F5F1" stroke="#F7F5F1" d="m607.5 966 1.5.5-2 1 2 1-1.5.5q-3-1.5 0-3ZM204.5 967l5.5 1.5-1.5.5-4-1v-1Z"/><path fill="#F7F5F1" stroke="#F7F5F1" d="M603.5 968q2.3-.7 1.5 1.5l-1.5-1.5ZM572.5 972l9 1 1.5-.5-3.5 2.5q-1-3-6-2l-7.5 3q-1.3-3.3 3.5-2l3-2ZM254.5 975l13.5.5-13.5.5v-1ZM546.5 975l9.5.5-9.5.5v-1ZM302.5 976l15.5.5-15.5.5v-1Z"/><path fill="#F8F7F4" stroke="#F8F7F4" d="m297.5 25 61 1 1-1h143l1 1h17l1 1 25 2 10 2 6 3 4-1 3.5 1.5-.5 1.5h7q-1 3.3 5 2l21.5 8 1 2.5-1 2 3.5-2.5 2 2 10 4 4 4h3l5.5 3-1.5 3q-1.3-2.2-2.5.5l1 5.5 3 1.5.5 1.5h6.5l-1.5-3-5.5-1 .5-5 12.5 7.5q-.8 3 3 1.5v3q2.7-1.1 2 1.5 1.3 2.8 2.5.5l3.5 2.5q-1.1 3.3 1.5 2.5l3.5 1.5q-.7 4.8 2.5 5.5l6.5 2.5V95q2.7-1.1 2 1.5l4.5 6.5 5.5 3.5 1 4.5 3 1.5v4l2 .5v2.5l-1.5-.5q-5.9-2.1-4.5 2.5l6 2.5q-1.2-3 2.5-2l-1.5-2.5.5-1.5q3.3 1.2 2.5 5 2.7-1.1 2 1.5-2.2 1.3.5 2.5 2.3-.7 1.5 1.5l4 6-1 2v2l2.5 2.5q1.3-2.2 2.5.5l2 6-1 2.5q2.7-1.1 2 1.5l6 12v2l4 12-1 3 3 5.5q-3.7-1.3-2 4.5h2l2 3v6l3 15q-2.5 1.5-1 7l1 1v12l-1 1v19l1 2-1 1v81l1 3-1 1v19l1 1v17q-2.5 1.5-1 7l1 1v416l-1 3 1 6-1 2.5-2 .5 2 .5-3 23q-2.7-1.1-2 1.5l1 2-3 5 1 4.5-2 .5.5 1.5q-3-.9-1.5 3.5l-1 2v2l-4 8v5l-3.5 5.5q-2.6-.8-1.5 2.5h-1q.7-2.6-2-1.5l2 5.5-7.5 12.5q-2.7-1.4-1.5-6-3-1.2-2 2.5l-1 2 2.5 3.5 1.5-.5-2.5 1.5-1.5-.5 1 3-5 6v2.5q-3-1.2-2 2.5l-3 1.5 5-17h-5v6.5l-1.5 6.5-1.5-.5q-1.9 5.4 1.5 4.5l1 2q-3.3 1.1-2.5-1.5l-3.5-5.5q-7.2-2.3-4.5 5.5l3.5 5.5 2.5-1.5-3 5q.8 2.6-2.5 1.5l-1.5 4-4.5 1-2-1q-3 .5-2.5 4.5l1 2.5h-2q1.1 2.7-1.5 2-1 3-6 2l-3.5 3.5-2.5 3.5q-3.7-.7-4.5 1.5l-.5 1.5h-2l-5.5 2q1.1 2.7-1.5 2l-16 8h-2l-6 1-5 3h-5l-1.5-3 6.5-1h2q3.8 1 2.5-2h-11.5q.8 3.3-4.5 2v3h-9.5l-4-2H246l-1 3.5 7 2.5q-1.4-4 5.5-2 1.3 2.3 6 1 1.5-2.5 7-1l1 1h30l1-1h30q1.5 2.5 7 1l1-1h17l1 1h13l5-1q1.2 2.3 6 1l1-1h18q1.3 2.3 6 1 1.5-2.5 7-1 1.3 2.3 6 1l1-1h62q1.5 2.5 7 1l1-1h17q1.5 2.5 7 1l1-1h17l1 1h18q1.5-2.5 7-1 1.2 2.3 6 1l12.5-3 1.5 3h10q1-3 6-2v1l-12 3h-2l-9-1q-2 2.8-6.5 2l-.5 2h-9l-10-2h-2l-2 1q-1.5-2.5-7-1l-1 1h-8q-1.5-2.5-7-1l-1 1h-13q-1.3-2.2-6-1l-1 1h-8l-1-1h-8l-1 1h-18l-1-1-2 1-2-1-3 1-2-1-3 1h-2l-2-1-2 1h-2l-4-1-2 1h-2q-6.8 1.3-10-1l-2 1-2-1h-2l-4 1q-1.8-2.7-8-1l-3 1-5-1-1 1h-10l-3-1-12 1-1-1h-12l-2 1-3-1-2 1h-22l-1-1h-2l-7 1-1-1h-26l-2 1q-1.5-2.5-7-1l-2 1-3-1h-2l-9 1h-4l-17 1v-1l2.5-.5-5-1 4-1-8.5-1.5v2l-4 1-6-2-1.5.5.5-1.5h10q3-1.5 0-3-7.7-.8-11.5 1l-.5 2H220q-1.5-3.7 1.5-3l6-3h12q1.5 3.5 3 1 2.3.8 1.5-1.5l-1.5-1.5H226l-.5 2h-10l-2 4q-4.6.6-6-2h-5l-7.5-3.5.5-1.5-5.5 1v-2h-4q1.1-2.7-1.5-2v-1l5.5-1v-4h-7.5l-4.5-1v-2h-5q-1.5 3.8 1.5 3l8.5 4.5-1.5-.5-3 1-11.5-6.5.5-1.5q-5.8 1.7-4.5-2 3 1 2-2l-2.5 1-6.5-2-1-2.5q1.8-4.2 3.5-1.5l2.5-1.5q1.3-3.7-2.5-2.5l-3.5 2.5q.9 3.4-4.5 1.5l-1.5-3q-3.7 1.5-3-1.5l-2.5-3.5-5.5-2.5-.5-3.5-1.5.5.5-1.5-2 1q-3.5-1.3-2.5-6l-5-1q1.5-3.7-1.5-3l-4.5-6.5 2 1v1.5h5q1.8-6.1-1.5-8H123v4h-1.5l-2.5-4 4-1 1-2.5-3.5-1.5h-2q-2.2-.7-1.5 1.5h-2l-.5 1.5-2.5-6q2.7 1.1 2-1.5l1-5v-2q.9-6.8-1-9.5l-4-1.5-1.5-2.5-7.5.5 1 2.5 8 2 1 8q-3-1-2 2l3 1.5q1.9 5.4-1.5 4.5l-4.5-7.5q4-2 0-4 .8-2.6-2.5-1.5l-4.5-6.5 3-6h-1q.8 2.3-1.5 1.5l-4.5-6.5 1-1-3-3 1-3q-4.8-4.7-5-14l1-2h-2l-1-5 1.5.5q3 .9 1.5-3.5l-1-4 1-1v-17l-3-1 2-10-2-2v-10l1-1v-13l-1-1v-162l1-1v-11l-1-1v-12l1-1v-11l-1-1v-49l1-1v-12l-1-1v-37l1-1v-12l-1-1v-212l1-1v-11l-1-1V223l-2 .5v588l2 2v20h-1l-3-25 1-3-1.5-4.5-1 2-.5-28.5v-2l1-3-1-1v-8q2.8-1.8 1-8l-1-4q2.5-1.5 1-7l-1-1v-56l1-2-1-1v-219l1-1-1-2q2.8-1.8 1-8l-1-2v-2l1-23-1-2v-2l1-21-1-1v-12q2.2-1.2 1-6l-1-1v-8q2.2-1.2 1-6v-2l-1-6 1-1v-54l-1-2 1-3v-31l-1-1 1-3-1-1v-19q2.2-1.2 1-6l-.5-1.5q2.8.6 1.5-5.5 2.3-1.3 1-6l-1-3 1-1 1-20 1.5-1.5q3 .9 1.5-3.5l.5-1.5q-2.2.8-1.5-1.5l1.5-6.5 1.5.5-1-3 2-3-1-3 3.5-8.5 1.5 3.5q-2.2 1.3.5 2.5l2.5-.5-1-4q3.2-2.3 2-9l-2 1q1 4.5-1.5 5.5-2.2.8-1.5-1.5l2-7.5 2-.5-.5-1.5H99v4h3.5l-.5-1.5 1-4q-3.7-.8-3-6 2-4.5 4-1v1.5h4l-1.5-5q-1.7 3.8-3.5.5l3-8.5q3-1.2 2 2.5l2 5.5q2.7-1.1 2 1.5l2 1v-5l-2-.5v-6q3.7 1.5 3-1.5l-3-1.5-1.5 3q-3.7 1.3-2.5-2.5l4-2.5q-.8-5 2.5-7l7 1 1.5-3-5-1 2.5-6 3.5-1.5q-1-4.5 1.5-5.5h1.5v-3q3.8 1.5 3-1.5L140.5 90l3.5 1q-1.2 3 2.5 2l1.5-3q-3.7 1.5-3-1.5l-1-2 5.5-3.5 1.5.5 2.5-5.5h2l4-2q-.2 4.7 3 6h2.5v-6.5l-3-4 13-8q-2.3-1.3.5-2.5l12-7h4l4-3h2.5l.5-2 2.5 1q1.5 3.8-1.5 3l-1.5-.5q.8 2.3-1.5 1.5-6.7 1.3-10.5 5.5V61h4l.5-3 3 2 2-2 7.5-1-1-7.5v-2q-.9-3 3.5-1.5l3.5-1q-1.1-2.7 1.5-2l13-5h3.5q-1.1 3.3 3 2v-2q-2.7 1.1-2-1.5l2.5 1.5 6-4 1-1h9.5q-1.2-3 2.5-2l8-2h7.5q1.7 4.1-2.5 3-1.3 2.3-6 1l-1.5 1.5q3.1 3 10 1.5-1.7-4.1 2.5-3h2q5.9 1.7 4.5-2l-6.5-1-1.5.5.5-2.5h2l9-1h2q6.7-2.3 17-1l1-1Zm-7.5 2v2h225l1-1-226-1Zm233 2q-2 2-6 1l-2 2h-12l-1-1H291l-1-1h-13l-1 3 2-1 12 2h2l3-1 3 1h2l3-1h161l1 1 1-1h62l1-3-4-1h-2Zm13 1v1h4l-4-1Zm-288 3-2 3q5 1 8-1-2-3-6-2Zm293 0v3h13l2-2-15-1Zm31 7q-1 3 3 2 1-3-3-2Zm-352 3v2q2 3 7 1v-3h-7Zm358 0v2l3 1q3 1 4-1v-2h-7Zm14 1q-3 6 3 4 1-3-3-2v-2Zm-380 1-2 3h5v-1l-3-2Zm40 1v3q5 1 8-1-3-3-8-2Zm22 0-1 1-9 1 13 1q2-4-3-3Zm255 0v2l4 1h2q5 1 6-1v-2h-12Zm19 0-5 2q4 2 11 1v-3h-6Zm-306 1-1 1q-3-1-2 2 2 2 8 1l1 3-9 2v-1l-3-1h-2q-3-1-2 3l3-1 4 2h-1l-2 1q1-3-1-2v2l-2-1-1 3-2-1-1 2-2 1q-3 1-2-2l-3 2 2 1-2 1v-2q-2 3-7 2-5 2-2 4l-1-1q-7-1-8 3l-2-1-2 3-10 4-1-2-4-1-10 1 2 4 10-2q3 2 0 3-3-1-2 2l-3 2-5-2-1 3 3 1q-1 2-4 1l-2 4-6 2-1-6-3 1v6h3q3 2 0 3-3-1-2 2-1 2-2 0l-3 4q-1 3-7 3h2v3l-5 4v-4l-3 4 1 3-4 3h-2l1 3q-1 2-5 1l1 3-1 3-3 1-2 7-10 16-1-2-1 9-1 1q1 3-1 2v2h-2l1-3h-1l-1-3-2 1v7l2-1 1 1-4 16-2-3h-1l1 4 1 1-2-1 1 3-2 8v8q-4 1-1 3l-1 12h-1q1-5-2-4-1-3 2-2v-27h-2v5h-2l2 7h-2q-1 5 2 7 1 8-2 8v24l2-1v-10l2-1v11l-1 1v50l1 1v11l-2 8 1 5v289l1 1v11l-1 1v12l1 1v12l-1 1v73l1 1v12l-1 1v75l1 1v14l1 1-1 4 1 5 1-2v9l3 6q2 7-2 6l-2 4 2 3 3-1-1-3 2-1 3 8-1 2 9 17q1 5-2 7l2-1 5 2 4 8 1 5 2 2-2-1-1 2-1-1h-2v4l4 1 3-1-1-2 3-2 2 4h1v4l5 3q1 3-1 4-5-1-4 2h7v-2h3q-1 3 2 2l-3 6q-2 5 2 4l1 3h7l1-1-1-3q-8 3-6-3 1-3 3-1l1-3 2 5-1 1 3 1h2l2 4h3l15 10 8 2 1 3q8 0 14 4l8 1 3 2h4l2 2 3-1q6-1 9 2h25l3-1h2q6-1 8 2h3l-3-1 3-1h2q10-2 16 2l5-1 3 1 3-1h2l2 1h2l2-1h4l2 1 2-1h2l2 1 8-2q6-1 9 2l3-2 7 1h-5v1h13l1-1 3 1h34l1-1 1 1h37l5-1 3 1h16l1-1 2 1h49l1-1 2 1h16q-1-3 5-2h2l5 1 3-1 19 1 1 1 9-2 7 1-1-1 15-3 3-2 3 1v-2l3 1-6 4h-2q-3-1-2 2l2-1 3 1h2l1-2h12q1-4-1-5l-4 1-4-1 8-3q2 1 1-2l10-5 4 1v-1l5-3h2q3-1 1 3l3-1q1-6-3-6l11-8 4-1 3-5v2q3 1 2-1v-4l7-5-1-3 2-1 10-14 3-7h2l3-2-2-3 1-2q-1-3 2-2l3-8 3 4v-4l-3-1 1-4 4-2-2-1v-3l5-12 2-16q3-2 1-3l1-6 3-1-1-6-1 4-1-25V514l1-1v-14l-1-1V280l1-1-1-12v-2l1-5v-2l-1-5q-2-9 1-12v-2l-1-3 1-2-1-1-1-29-2-7v-6l-3-7v-7h3l1 9 3 6q-2 12 1 20l2-1-1-2 1-3v-15q-4-4-3-13-1-3-2-1l-2-2 1-2-4-1-1 4-2-2 1-4-2-7 1-2v-9l-2-2q1-4-1-3-2-2-3 1l4 8q2 7-2 6l-1-2 1-2-1-1-7-13q1-3 3-1v-2l-4 1q-3-1-2-4h2l1-3v-2q1-5-1-4l-3 8-6-11 3 1 3-1 1-4h-8v4l-2-1 1-2-4-2 1-2-3-2-2-2v-2l-1-1-6-3 1-2q2-8-2-7l1 3-4 1-2-3q-2-5-3-2l-4-3-3-4-6-3v2l-2-3q1-3-1-2v-1l-3-1-7-5-3 1v-1l-1-1-2 1 1-3h-1l-12-7q-3 1-2-2h-5l-13-7q-3 1-1 3l-1-1h-2v-4l-6 2v-2l-2 1h-3l3-1-1-1q-1-3 2-2v-2l-3 2-12-1-2-2-2 1-6-3-10 2v-2l-5 1h-8l7-1-22-2-1-1q-5-1-6 1l-4-1-3 1H291l-1-1-4 1v2l-3-1-10 2q-2-2-3 1l-9-3v2l-5 2q-7 2-5-3l-9-3Zm312 2v2l4 1h8v-3l-3 1-9-1Zm48 4v4l8 2q5 2 4-1l-8-5h-4Zm-31 1-3 3h3v-3Zm44 4v2l4 1q2-5-4-3Zm-401 1-4 4-3-1q-9-2-6 5l8-3 4 1q2 1 1-2l4-2q-1-3-4-2Zm374 0-3 2 5 1h2l5 1 2 2q7 2 5-4l-4 1-8-3h-4Zm-412 6-3 4q-1 3-7 1l-2 2 1 1h7l1-3 5 1v-4l-2-2Zm439 6-2 3 2 1h2q2-5-2-4Zm4 3 1 2 7 3q5 2 3-4l-11-1Zm23 0-2 2v6h5v3q3 2 9 1l1-2q-2-3-7-2l-3-5-3-3Zm-484 8-1 1h-5q1 3-3 2v3q5 2 4-2 6 2 8-2l-3-2Zm10 2q-1 4 2 3h2l2-1-6-2Zm463 0v3l2-1 7 5q4 1 2-4l-5-3h-6Zm22 3q-2 5 2 4 2-5-2-4Zm-514 8q-1 5 3 3 2-4-3-3Zm14 0-1 1q-4-1-3 3l2-1v5q4 1 2-4h3q1-3-3-2v-2Zm508 1v3l3-1q1-3-3-2Zm7 1-3 6v4l4 4q6 1 9-1l-8-4-2-9Zm-531 2-2 4v4h5v-8h-3Zm-9 9v2l4 1 2-1v-2h-6Zm14 1-2 2-2 1v8q3 1 2-1 3-2 1-3l1-4q4 1 5-1 1-3-5-2Zm517 0q-2 3 1 2l-1-2Zm5 0q-2 5 2 7h1v-6l-3-1Zm14 2v8h3l-1-6q1-3-2-2Zm-552 1q-3 1-2 7l3 1q2-1 1-6l-2-2Zm19 2-2 3 2-1v-2Zm-16 8-1 5 1 6 4-7q2-6-4-4Zm563 5-2 2 1 5-1 10q1 2 5 1l-1-6 2-4q1-3-2-2l-1-2q1-5-1-4Zm-567 7q-1 5 2 6l2-1q2-7-4-5Zm560 7 1 2q1-3-1-2Zm11 3v5h7l1-4-8-1Zm-13 1-1 2h4l-3-2Zm-567 2v7h3q-1-4 2-6l-5-1Zm589 8-2 3q0 6 3 10v6h4v2h1l-2-11-4-10Zm-605 14v5l3-1q2-6-3-4Zm13 3-1 3h1v-3Zm599 1 1 4 2 1-1-2q1-4-2-3Zm-619 1q-1 3 2 2 1-3-2-2Zm-2 2v3l2-1q1-3-2-2Zm620 2q-1 3 2 2 1-3-2-2ZM89 201l-2 3q-1 7 2 11l1-4-1-10Zm626 2q2 2 1 8l2 3v197l-3 2v49l1 1v11l-1 1 1 307v-6l2 1v35q-1 2-2 0l-1 13 3 1 1-6q-1-8 2-7v-7l-1-1v-28l-1-1V475l-1-1v-12l1-1v-49l1-1V224l1-1v-11l-1-2q-3 1-2-5l-3-2Zm-12 11-1 7 1 3 2-1v-8l-2-1Zm-614 2-2 5q-1 4 3 2l-1-7Zm615 13-1 4 2-1-1-3Zm12 6-1 7h2q1-5-1-7Zm-12 19-1 14h1v-14Zm-1 19 1 26v-18l1-1q2-8-2-7Zm-601 13-1 12h1v-12Zm601 18v7h2v-6l-2-1Zm12 13v7h2v-6l-2-1Zm-10 6-1 12-1 1 1 13h1v-26Zm11 6-1 7h1v-7Zm0 19-1 7h1v-7Zm-11 38-1 7h1v-7Zm-1 12-1 7h1v-7Zm0 32-1 7h1v-7Zm0 12-1 8h1v-8Zm-1 13v7h2v-6l-2-1Zm2 69-1 13h1v-13Zm0 25-1 14h1v-14Zm0 19-1 7h1v-7Zm-1 12-1 8h1v-8Zm1 19-1 7h1v-7Zm-603 1-1 6h1v-6Zm0 25-1 12h1v-12Zm603 18-1 7h1v-7Zm0 32-1 13h1v-13Zm0 18-1 14h1v-14Zm0 19-1 7h1v-7Zm-603 1-1 11h1v-11Zm602 62-1 13h1v-13Zm0 17-1 3h1v-3Zm0 8-1 3h1v-3Zm-602 1-1 16-1 1v13h3v10l-1 4h-2l1 2-1 2 3 3 3-6q2 1 1-1v-9l-3-5-1-5v-12l-1-1 1-5-1-7Zm602 15-2 4v14l1 1-2 5 3-1-1-2 2-3v-14l-1-4Zm-3 25-3 7q-1 3 2 4l2-1-1-10Zm-609 7q-1 3 2 2 1-3-2-2Zm4 1-1 5 5 15q3 1 2-1v-2l1-4-3-2-1-10-3-1Zm608 1q-1 4 2 7 2 7-2 6l1 9 2-7 3-3-1-1 1-7h2v-4q-4-2-3 4l-2-1q1-5-3-3Zm-590 8-1 2 2 1-1-3Zm0 5-1 8 3-2-2-6Zm2 9v4l4 1q1 2 2 0l-2-3-4-2Zm571 0v4q4 2 3-2l-3-2Zm3 6-2 2q-3-1-2 2l-2-2-2 2h2l1 3q-3 1-2 4h4v-1l6-5-1-3q1-3-2-2Zm-568 3q-1 3 2 2 1-3-2-2Zm578 2-1 2 2 1-1-3Zm-2 1-1 2 3 2-2-4Zm-573 2v3l3-1q1-3-3-2Zm569 1 1 6 2-1 1-2v-2l-4-1Zm-568 3v7q3 1 2-2v-2q1-4-2-3Zm551 1-1 4q1 3-1 2l-2 3q-2 1 1 2h3q-2-6 3-4v-5l-3-2Zm-537 15-2 2q-1 3 2 2l1-3-1-1Zm526 4-2 4 3-1q1-4-1-3Zm-536 2-2 2q-1 2 2 1l8 9 2-1q1-6-1-7-4 1-3-2-1-3-6-2Zm527 6-1 2 2 1-1-3Zm9 5v6l3-1-1-3q1-3-2-2Zm-524 2-2 2q2 3 8 3v-5h-6Zm516 1v2l-3 2-2 4 8-1 1-3q2-6-4-4Zm-509 5v5l3 1 1-4-4-2Zm14 1v4l5 1h7l-8-5h-4Zm471 4-3 1 2 3h5v-2q-1-3-4-2Zm-459 1 2 3 3-1v-2h-5Zm451 0 1 2h1l-2-2Zm24 2-7 2q-5-1-3 4l11-2-1-4Zm4 0 2 2q1-3-2-2Zm-34 1-2 2h3q1-3-1-2Zm-430 1-2 2q-2 5 4 3l1-4-3-1Zm-27 2q-1 3 2 2 1-3-2-2Zm34 3q-2 3-7 2-4 2 1 4l3-1h1l1-2h6q2-5-5-3Zm9 3-2 2q3 2 10 1l1-2h-1q-2-3-8-1Zm424 1-2 2q1 2-6 1l-2 3 8 1 3-4q1-4-1-3Zm-67 5-1 1h-14l-1 1h-7v4h14v-4l10 1 1-2-2-1Zm-309 1-2 2 1 3h12v-5h-11Zm315 0-3 2h3v-2Zm46 0v5h5v-5h-5Zm-276 1 1 4h13v-4h-14Zm114 0 1 4h12v-4h-13Zm19 0v1h6l-6-1Zm-260 6-4 2h6q1-3-2-2Zm370 0 1 2h8v-2h-9Z"/><path fill="#F8F7F4" stroke="#F8F7F4" d="m293.5 49 2.5.5-2.5.5v-1ZM503.5 49l5.5.5-5.5.5v-1ZM552.5 55l2.5.5-2.5.5v-1ZM580.5 62l1 2-1-2ZM153.5 75l-2 3 2-3ZM141.5 86l-2 3 2-3ZM178.5 88l-1 2 1-2ZM136.5 91l-2 3 2-3ZM639.5 97l1 2-1-2ZM311.5 113l18.5.5-18.5.5v-1ZM339.5 113l6.5.5-6.5.5v-1ZM470.5 113l15.5.5-15.5.5v-1ZM655.5 113l3 4-3-4ZM504.5 114l2.5.5-2.5.5v-1ZM352 115l14 .5-.5 1.5h12q-.8-3.5 5.5-2l.5 2h69q1.3-2.2 6-1l3 1h4l25-1 1 1h8l5-1 5.5 1-.5 2h-7l-1-1h-10l-2 2-12.5.5 1 3.5h11.5l.5-1.5 1.5-1.5h11l1 1h8l3.5-1v3h7.5l6.5-1.5-4.5-1.5h-2q-7 1.5-6.5-1.5l-5-2 4.5-.5 3 2 3-1 20 4 2 2h6l9.5 3.5-3.5 1.5-2-1-1.5 4 4.5-1q2.8 3.4 9.5 2 1.4-3.7-4.5-2l-1.5-2.5 1.5.5q5.2-.8 6 3l1.5-.5q-.7 2.3 1.5 1.5l3 1 6.5 2.5-3 1.5q-1.7 4.5 3.5 3l3-2 7.5 4.5q-.7 2.3 1.5 1.5l5.5 4.5-1.5 2.5-3.5-1.5q1.1-3.3-1.5-2.5-1.7-3.7-3.5-.5l4 5 1 4.5q4.7 1 6-2.5-.9-3 3.5-1.5l1.5 4 6 4.5 1 4.5 4 1 2 6q-2.7-1.1-2 1.5v2q-1.9 5.4 1.5 4.5l2.5-5.5-2-1 1.5-.5 1.5 2.5-.5 1.5q3.8-1.2 2.5 2.5l4 8h-1l-.5-2.5-.5 3.5 3 1 4 9-1.5 2.5-1-2-.5 3 4 1.5q3 4 3 11l-.5 1.5q2.6-.8 1.5 2.5l1.5 3.5 1.5-.5-2 4 2 7-1 1-1 13 .5 1.5-1.5.5 1 1V261l2 .5v162l-1.5-.5H634v7.5l1 6.5q3.8-1.5 3 1.5l-1 4q2.5 1.5 1 7l-1 2 1 5-2 10-2 3v5l-5 6 2 6-1.5-.5q-2.2-.7-1.5 1.5l-1 2.5q-2.7-1.1-2 1.5h-1l-1-2h2l-1-4.5-5 1-1 4q3.8-1 5 1.5l-1 6-1.5 1.5q-2.2-.7-1.5 1.5l-4.5 5.5-4.5 2.5q2.3 1.2-.5 2.5l-4 3H603q1.1 2.7-1.5 2l-5 3-1.5-.5-1.5 2.5q-2.8 3.4-9.5 2l-1.5 3-2-1-14.5 4-.5-3H528l.5 2h29l6.5 1.5q-3.4 2.6-10.5 1.5l-1-1h-23l-1 1h-13l-1-1h-36l-1 1h-25l-1-1h-10l-1 1h-113l-2-1h-48l-1 1h-12l-1-1h-8q-1.5 2.5-7 1l-6.5-1.5 8.5-2.5h12l1.5-1.5-.5-2.5h-11q-4.4 4.3-13.5 3 1.5 3.8-1.5 3l-7-4-.5 2-8-2q1.3-3-2.5-2h-2l-1.5-.5q2.3-1.2-.5-2.5l-1.5.5.5 1.5-7.5-4.5.5-1.5-2 1-1-2-1 1-3-3q-2.6.7-1.5-2h-2.5l-1.5.5 1-2-2.5-3.5-3.5-1.5.5-1.5-5.5-4.5-9-15V481l2-.5q-3.5-1.5-1-3l-.5-2.5-2 3v-2q-2.7.6-1.5-5.5l-2-5.5q2.7 1.1 2-1.5l.5-1.5-3.5 1 1-4.5-3-10v-14l-1-1 1-3-1-1v-175l1-2-1-3 2-10-1-5 1-1v-12l1-5 2-2-1-2 1-5 3-4v-2q1.2-4.7-1-6l3-1 1.5-3.5q3.8 1.3 2.5-2.5l1-3-1-2 3-5.5 2-.5v-2l5.5-7.5 3.5-2.5 1-2q-2.2-1.2.5-2.5l4.5-2.5q-2.5-1.5 1-3-.8-2.6 2.5-1.5l5-6 9-7 6.5-1 1.5 4 1.5-3.5-2-3 2-3.5 4.5-1 1.5.5q-.7-2.2 1.5-1.5l8.5-4-1.5 3q-2.6-.7-1.5 2l4.5 1h2q6.8 2 4.5-4l-7-.5 2.5-2.5h4q.5-3.5 5-3h5.5q-1.1-2.7 1.5-2l20-4h2l2 1 .5-2 11.5-1h40l1 1H352v-2Zm-62 3-1 3h-11l-1 3h13v-3h12v-2l-12-1Zm39 0-3 3h27l1 1h11l1-1h106v-2h-6l-1-1h-10l-1 1H340l-1-1h-10Zm-25 4v1h10l-10-1Zm242 4v4q3 1 2-2h3q1 2 2 0-1-3-2-1l-5-1Zm-291 1 1 2h1l-2-2Zm-3 1q-1 3 2 2 1-3-2-2Zm-13 5-3 1q-1 3 3 2v-3Zm21 1-1 1q-5-1-3 3l6-1q3 1 2-1-1-3-4-2Zm13 0v2q-3 2-9 1l2 4q5 1 6-2l1-2h15q5 2 7-1 6-2 8 1h12l-1-3h-11l-1 1-2-1h-10l-1 1-16-1Zm218 0 1 4-1-1-176 1 25 1h-37l-1 1-5-1-6 2h-4l3-1v-1l-16 2-2 3-2-1-4 2-2-3-4 1-1 3 2 1h-4l-3 1v-1q1-8-2-7v9h2v1l-2-1q-7-1-9 4 1 2-2 1l-4 3 1-3h-3l-2 4-2-1-2 1-3-1 1 5 1 1-3 3 1-3-3 1-3 4q-5-1-4 2l1 1-4 4-3-1v-2h-6l-1 3q-3-1-2 6l2-1h1v-4l3-1 2 1-1 5q1 2-2 1l-4 9-2 1 1 2h-2l1 2-1 2 1 3-1-1-3 5 1 4v1l-1-2-3 8q-4 1-1 3l-1 11-1 1v10l-1 1q-1 5 1 7l-1 3v184l-1 1q-1 5 2 6l1 15 2 8v2l2 6 9 14v2l4 1q4 2 1 4h3l-1 2h5v-2q2 1 0 3l1 2h3q2-1 1 3l4 1h6l2 2h6l4 2q5-1 7 1l2-1 1 1 11 1-11 2 3 1h8v-1l2-2h24l1-1h61l1 1h12l1-1h150l1 1h11l1-1h32l6-2h5l1 3h3q4 2 3-2-2-5-3-2l1-2q2-1 1 2l7-3-1-1 4-2 1 3-1 2q-1 5 3 3 1-6-2-9l6-2q2-1 0-2l4-4 1 1 2-1-1-2 4-2 1-3h2l-2-1 2-1-1-1 7-13v4l-2 4 4 2 1-2q1-8-3-10l1-9 2-5v-12l1-1-1-2V261l1-1-1-3v-18l-3-16 1-3-4-10q2-8-2-7l-1-3 1-2-1-7-3 2-2 1 1-2h-1v-1l-1-4-7-11q-4 1-2-3l-4-2 1-3-4-1-2-4q5-1 6 2l-1 2 2 1q1-6-1-8l-6-1-2 3q-1 2-2 0l-2 1v-1l-1-1h-2v-1l-5-5-7-2-8-5-1 1-4-2q-4 1-3-1v-2l-3-3-3 2q-7 1-10-2 3-3 9-2v-4l-11 3-1 3-6-2-2 1-16-3-1 3q-4 1-3-2l-5 1-2-3 3 1h7v-1l-1-2h-11Zm31 0-7 2 2 1h11v-3h-6Zm32 0 1 2 3-1-4-1Zm-225 1v1h11l-11-1Zm93 0v1h8l-8-1Zm26 0v1h5l-5-1Zm11 0v1h3l-3-1Zm85 0 2 7 8 2-1-1 1-2-3-2-2-2q-1-3-5-2Zm40 8-2 2v1h5q2-4-3-3Zm-366 2q-3 1-1 3l1 1h6v-4h-6Zm360 1 2 3 2-1-4-2Zm-342 1q-3 4-10 3v5h2l1 2v-3q6-1 11-5l2 1q3-1 0-3-5-2-4 2l-2-2Zm329 0 1 2q1-3-1-2Zm-351 2q-3 1-2 6l4-1-1-3q1-3-1-2Zm354 0v2l12 4-1-2 1-2-12-2Zm-357 7-5 1-3 3 1 1h7v-5Zm390 2-2 2q-1 3 4 1l-1 2q-2 5 2 7l3-1-1-6q-3-2-1-3l-4-2Zm-385 1-3 3q-1 4 2 5l2-5h4l-5-3Zm-16 2v8l3-1v-7h-3Zm-6 9 2 3h3l-5-3Zm416 0-2 3 4 1 3-1-5-3Zm-13 2v3q4 2 5 8l2-1q2-6-2-5l-1-2q1-5-4-3Zm-407 6-2 2h2v-2Zm428 3v5q5 2 4-2l-4-3Zm-432 1-2 2 2 2h1v5l3 1v-6l-3-1q1-4-1-3Zm422 3 1 8 8 2v-6h-4l-1-2v-2h-4Zm15 1-1 3h1v-3Zm-424 5-3 3 1 2q-1 2 2 1l-1-1 1-3v-2Zm-17 4-1 1q-4-1-2 3l6-1q2-4-3-3Zm14 0q0 3-3 2 2 6-2 8l1 6q2-1 1-5l3-2v-9Zm-6 2-2 5 3-1-1-4Zm423 0-2 2q-2 5 2 4 3 2 1 9v2q-1 2 3 1l-1-1 1-3v-7l-2-6-2-1Zm15 7 1 3-1 9h2v-10q1-3-2-2Zm-451 3-1 3-3 1-1 12q-4 1-1 3v10l-2 10v190h2V249l1-1v-10l3-3q2-6-1-7l1-13v-2l2-1v-5Zm13 4-1 5 2-1-1-4Zm441 7-1 6v24h3v-11l-1-1v-12l2-1-1-3q1-3-2-2Zm5 5-2 2 2 8 1-2-1-2 1-3q1-4-1-3Zm-447 11-1 3h1v-3Zm-14 2v12h3v-11l-3-1Zm0 12-2 2v36l1 1v11l-1 1v12l1 1v11l-1 1v74l1 1-1 37-2 2v11l3 1 1-1v-37l1-1v-10l-1-1v-75l1-1v-12l-1-1v-12l1-1-1-50Zm444 11q-1 3 2 2 1-3-2-2Zm8 39v13h2v-12l-2-1Zm8 6-1 7h1v-7Zm3 0-1 7h1v-7Zm-15 45-1 6h-2v6h3v-12Zm15 56-1 6h1v-6Zm-5 31-2 2v11q3 4 2 12 5 2 3-3v-2l-1-5q2-2-1-3v-11l-1-1Zm-5 13v15l1 1q-2 1-1 7-2 1 1 2l2-1-1-3 3-7-3-2v-11l-2-1Zm-438 12-2 4 1 3-1 5h1q-1-3 2-2l-1-4 1-2-1-4Zm-15 1q-1 5 2 8l1-4q2-6-3-4Zm17 9-2 9q-1 3 3 2l2-5q1-5-3-3v-3Zm419 11-1 4q-2 1 1 2 4 1 5-1l-2-3q1-4-3-2Zm-415 1-2 2v3h6l1-3q-1-3-5-2Zm-12 2-2 2 7 10q2 1 1-5l-2-2-2-3-2-2Zm442 1 1 2q1-3-1-2Zm-9 3-1 10 2-1q1-7-1-9Zm-416 2v7h2q-1 3 2 2h2l4 1v-4h-3l-2-1q-3 1-2-3l-3-2Zm402 0q-3 1-1 3l-1 3-3 1-4 2h7q1 3 3-1 1-7-1-8Zm-407 7-5 2 3 1q6 2 5-2l-3-1Zm413 0-2 4-3 1q-3 1-2 5l3 1q3-1 2-5l6-3q1-5-4-3Zm-395 2v8h2l1-3-1-3q1-3-2-2Zm-15 2v7l1 1q-1 2 2 1 2-1 1-7l-4-2Zm-5 2 1 2h1l-2-2Zm33 3v3l4-1v-2h-4Zm356 2-4 1 1 2h7q2-5-4-3Zm-378 1-3 2 1 2q8-1 10 4 5 2 3-4-5 1-6-1v-3h-5Zm16 0q-1 4 4 2 1-4-4-2Zm11 0 2 3h11l1-1q-1-3-2-1l-2-1h-10Zm60 0-1 2h61l-25-1-1-1-5 1h-12l-2-1h-2q-5-1-6 1l-7-1Zm112 0-1 1h-11v1h23l-10-1-1-1Zm26 0q-2 3-8 1v1h18l-7-1-3-1Zm61 0-1 1h-10v1h35l-18-1-1-1-3 1-2-1Zm60 0-2 2h3q1-3-1-2Zm14 0 2 3q5 1 6-1v-2h-8Zm30 0v4l6-1q3-1 0-3l-2 1-4-1Zm-228 1v1h10l-10-1Zm88 0v1h10l-10-1Zm17 0v1h6l-6-1Zm58 0v1h10l-10-1Zm62 3-2 4 4-1q1-4-2-3Zm4 2v2l2-1-2-1Zm-380 2v2l3 1v-1l-3-2Zm371 0-3 2h3v-2Zm0 3v1h2l-2-1Zm-351 3 1 3 2-1q1-3-3-2Zm330 0v2l7-1-7-1Zm-267 1-1 1h-21l1 2h43l1 1 6-1-1-3-4 1h-22l-2-1Zm144 0-1 1q-3-1-2 2h13v-1q-1-3-2-1l-2-1-2 1h-2l-2-1Zm41 0-1 1q-6-2-5 2h28l1 1 1-1h8v-2h-31l-1-1ZM116.5 120l-1 2 1-2ZM665.5 125l1 2-1-2Z"/><path fill="#F8F7F4" stroke="#F8F7F4" d="m341.5 138 2.5.5-2.5.5v-1ZM460.5 138l8.5.5-8.5.5v-1ZM472.5 138l9.5.5-9.5.5v-1ZM519.5 141l2.5.5-2.5.5v-1ZM544.5 146l1 2-1-2ZM200.5 153l-3 4 3-4ZM583.5 167l1 2-1-2ZM590.5 174l1 2-1-2ZM214.5 175l-1 2 1-2ZM371.5 190l4.5.5-4.5.5v-1ZM396.5 190l5.5.5-5.5.5v-1ZM420.5 190l6.5.5-6.5.5v-1ZM343.5 191l4.5.5-4.5.5v-1ZM453.5 191l3.5.5-3.5.5v-1ZM390.5 192l65.5 1.5-3 1 6 2-.5 1.5 6.5-2 .5-2h13l1 1h10l10 2 2-1 1 1 11 1 3 2 6.5-1q-1.1 2.7 1.5 2l1 2-1.5.5 3.5.5 4-2 4 2 2-1 6.5 2 .5 2q1.5-2.5 3 1l8 2 2.5 2.5 2.5 3.5 4.5 1 4 5.5v3.5q3-1.2 2 2.5l-1 2.5q-3.3-1.3-2 3.5l-1 5 1 1v7.5q4.5 1.8 3-3.5l-2-8q2.8-1.1 2-4.5l3 1.5v2l1 12-1 2 1 1 1 27 1 1v94l-1.5 5.5-1-5-.5 12.5h1l.5-5.5.5 18.5-1.5-.5-1.5.5V412l2.5-1 .5 12.5-1.5-.5-1.5.5V436l2.5-1 .5 5.5-3 1 1 11h-1q1.6-5.7-4-3.5v5.5l-1.5.5v1l4.5-1-1 3.5.5 1.5-1.5-.5q-.6 5.9-4.5 8.5-4-.5-4.5 2.5l-3.5 5.5-3 2-1 3q-4.6-.6-6 2v-2l-2.5 1.5q.8 2.6-2.5 1.5-1.2 2.3-2.5-.5l-1.5-3.5-4.5 1.5 1.5 4.5-5 1q-2-3-8-2l-2 1-4-1q-1.7 2.7-8 1l-4-1-1 1-12 1-1-1h-9l-3 1-2-1-2 1-2-1h-2l-2 1-2-1h-2l-5 1-1-2-2 1h-4l-12 1-1-1h-10l-1-1-6 2-1-1h-24q-1.5-2.5-7-1l-2 1-2-1h-2l-7 1-1-1h-11l-11 2-1-1h-10l-1-1q-2.3 3.2-9 2l-4-1-2.5 1q1.1-2.7-1.5-2h-2q-2.3 3.2-9 2l-1-1h-13l-4 1-1-1h-14l-4 1-3.5-1-.5-2-1.5.5 1.5-2.5q-4.7 1.3-6-1l-7 3q1.7-2-2-4H255q1.1-2.7-1.5-2l.5 1.5-.5 1.5-1.5-2.5.5-1.5h-2l-5.5-4q.8-4.7-3.5-6H240q1.5-3.7-1.5-3l-3.5-6.5 2-4q1.3-6-2-5v-11l-2-2v-23l1-1v-12l-1-1v-24l1-1v-37l-1-1v-68l2-7v-11l1.5-1.5q3 .9 1.5-3.5-2.7-1.8-1-8 2.2-1.3 1-6l-.5-1.5 2 1 .5-1.5-.5-1.5 1.5.5q-1.8-6.1 5.5-3.5 2.7-1.2.5-2.5l-.5-1.5-5 1-5 3 3.5-4.5 1.5-2.5 5.5-2.5 2.5-4.5 6 1v-1l-1.5-.5 6.5-4.5q4.3.8 5-2h5l8-4h11l3-2 13-1 1-1h9l1-1 35-1 1 1h12l1-1h24l1-1Zm-45.5 2v2l-3 1-1-2-10 3 4 1 17-1 1-1h12v-2h-18l-2-1Zm47 0-2 2h-12l-1 3h13v-2h24l1-1v-2h-23Zm54 1q1 4-4 2v1h12l1-1q-3-3-9-2Zm-126 1-3 1 1 2h10v-1q-2-4-8-2Zm97 0q-3 2 0 3h10l7-1-7-2h-10Zm49 0-3 2 3 1q4 1 6-1 2 1 1-1h-1l-6-1Zm13 0-3 2 3 1h12v-1l-1-2h-11Zm-176 1v1h4l-4-1Zm6 0v1h2l-2-1Zm57 0v1h6l-6-1Zm-85 3-3 2h4l-1-2Zm237 0v2l4-1-4-1Zm-236 2q-1 3 2 2 1-3-2-2Zm238 1q-1 2 3 2 1-3-3-2Zm-246 1-14 7 3 1h2q3 1 1-3l4-1h8v-2q-1-3-4-2Zm257 1-1 1q-3-1-2 2h7l1 1q6-2 4 3l4-1q2 1 1-2l-3-1q-3 1-2-2l-2 1-7-2Zm-89 4-2 3h13v-1l-1-2h-10Zm33 0-7 2 8 2q3-1 2 2l12-2 1 4-1-1-1 2h-8l2-1-6-2h-11l-1-2h-9l-1-1q-3 1-1 3-1 2-2 0h-8l-1 1h-5l2-1-4-2-8 1h-2l-1-1h-13l-3 1-2-1-3 1-2-1-4 1-2-1h-17l-2 2q1 2-1 1h-2q-3 1-2-2l-14 1h-2q-6 2-4-3h11l1-1 2 1h11v-2h-25l-1 2-2 1-2-1-2 1-4-1v-2q-3-1-2 2h-2l-3-1-3 1h-9l-1-1q-5-1-6 1h-24l-1 1-4-3h-3q-1 4-5 3l-2 4 11-1q2-4 4 0l24-1 1-1q7-1 10 2 2 1 1-2 5-2 13-1l2 3 1-2v3q-5-2-13-1l-3 1-2-1-6 1h5v1h-11l-3-2-4 2h5v1q-7 2-8-1l-2 1-1-1-4 2-3-1q-7-1-9 2l4 1h-3l-1-1-4 2-2-2-2 2 2 1h-2l-2 1q1-3-1-2h-2q-4 5-12 6l-3 3q-3-1-2 2l-2-2-1 3 3 2-1 12-1 1v193l3 8-1 2 6 4-1 2 19 5 2-1h40l4 1h2q1-3 8-1l3 1 2-1q4-1 6 1l2-1h12l1 1h11l1-1h11l1 1q6 2 8-1l2 1 3-1h4l3 1h11l1-1 2 1h2l2-1 4 1 3-1q4-1 6 1 4 1 6-1 4-1 6 1l63-1h2l2 1 3-1h11l1 1 6-2 4 1 1-2q2 1 4-2 1 4 5 3 1-3-2-2v-3l4-2 1 3q3 1 2-2l-2-2-1-2q-1-3 2-2l-1-1 3-6-1-4 1-2q2-6-1-7l1-5v-13l-1-1v-11l1-1v-16l-1-1q-2-7 1-8v-12l-1-2v-2l1-4v-42l-1-1 1-2-1-5 1-5v-25l-1-1 1-5v-13l-1-1v-9l-1-4-1 5h-1q-1-5 1-6l-2-8-5-4q-4 1-3-2l-2 1q-3-1-1-2l-1-1h-2l-5-1-4 1-5-1-3-5-3 1q-6-2-5 2-3 1-2-1h-1l-11-4v-1h11l1 1h7v-3l-6-1q-6-1-7 1l-3-1-3 1-4-1h-14l-1-3h-3Zm45 0-2 2 4 6q3-1 2 2h4q2-5-2-4l-2-4q1-4-4-2Zm-62 2v1h2l-2-1Zm5 0v1h2l-2-1Zm-211 3-2 5 2 1v-6Zm83 0v1h2l-2-1Zm220 1-2 2q-1 4 2 3l1-3q1-3-1-2Zm2 6v2l8 1v-3h-8Zm-303 1q-3 1-2 5 5 1 8-2-1-4-6-3Zm287 0-2 2h3l-1-2Zm9 0 1 6q5 2 3-4l-4-2Zm16 2 1 2q1-3-1-2Zm-327 24v12h2v-11l-2-1Zm327 1v12h2v-11l-2-1Zm-7 5-1 7h1v-7Zm-323 7v175l2 2v7h3v-8l-3-1v-50l1-1v-10l-1-1V262l-2-1Zm339 1-1 12h1v-12Zm-3 4v4h1q1-5-1-4Zm-13 7-1 13h1v-13Zm7 13v49h2v-11l-1-1v-12l1-1v-23l-2-1Zm-7 50-1 13h1v-13Zm-2 25 1 7v12h1v-18l-2-1Zm18 0-1 6h1v-6Zm-2 13-1 3h1v-3Zm-16 12v12l2 1v-12l-2-1Zm0 31v1q2-1 1 6h1v-7h-2Zm14 19-5 1v11l-1 1q-1 3 2 4l2-9-1-3 3-1v-4Zm-318 17-2 2q-1 3 2 4 2 1 1-2v-2q1-3-1-2Zm-14 2q-3 1-1 3l-1 2q2 4 4 1l-2-6Zm330 2-1 2-2 1 3 1v-4Zm-312 2-2 4h5v-2l-3-2Zm-12 1-4 1 2 3q6 2 4-3l-2-1Zm314 0-3 1q-2 6 4 4h2l3-1v-4h-6Zm-5 4-2 4q-1 4 1 6-1 2 2 1l1-1v-9l-2-1Zm-306 1 1 6q2 4 4 1v-7h-5Zm65 1-5 2-5-1h-26l1 4h20v2q3 1 3-2h177v-3h12v3h38v-4H384l-1 1-68-2h-2Zm-61 7v2q1 2 7 1l3 3 4-2h7l1-3h-9l-1 1q-5-3-12-2Zm288 0-1 1q-4-1-3 2l4 2v-2l4-1q1-4-4-2Zm-10 3-1 1H274l1 4h15q9-1 15 1h2l2-1 2 1 3-1 4 1 9-1h2l2 1 3-1h18l1 1 2-1 3 1 2-1h18l3 1 2-1h18l2 1 3-1h42l1 1 2-1h18l2 1h2l2-1 3 1 3-1 2 1 1-1h13q5-1 7 1 5 2 7-1l4 1 1-1h18l1-3-5-2Zm18 0-2 2q-8-2-6 3h6l3-3q4 1 5-1l-6-1ZM475.5 192l3.5.5-3.5.5v-1ZM307.5 193l3.5.5-3.5.5v-1ZM488.5 193l5.5.5-5.5.5v-1ZM83.5 198l.5 2.5h-1l.5-2.5ZM524.5 198l3.5.5-3.5.5v-1ZM108.5 206l.5 2.5h-1l.5-2.5Z"/><path fill="#F8F7F4" stroke="#F8F7F4" d="m346.5 214-1 2-1.5-.5 2.5-1.5ZM564.5 214l2 3-2-3ZM389.5 215l39.5.5-39.5.5v-1ZM430.5 215l6.5.5-6.5.5v-1ZM459.5 215q3.8-.7 4.5 1.5l-3.5.5-1-2ZM81.5 217l.5 2.5h-1l.5-2.5ZM477.5 217l2.5.5-2.5.5v-1ZM490.5 218l4.5.5-4.5.5v-1ZM699.5 220l.5 4.5h-1l.5-4.5ZM514.5 221l2.5.5-2.5.5v-1ZM235.5 225l2.5 1.5-3 2 1-2-.5-1.5ZM613.5 226l.5 3.5h-1l.5-3.5ZM639.5 229l.5 2.5h-1l.5-2.5ZM232 232l2 .5v15l-1 1-1 18-1 1 1 5-1 1v11l1 1v19q-2.3 1.2-1 6 2.5 1.5 1 7l-1 1v11q2.3 1.3 1 6l-1 1v12q2.3 1.3 1 6-2.5 1.5-1 7v2l1 35-1 1v13l1 1v23l1 5-1 1v6.5q2.7-1.1 2 1.5 2.3 1.2-.5 2.5-1.7-3.1-3.5-1.5 3.5-1.5 1-3l-1-4v-184l1-2q-2.5-1.5-1-7l2-3-1-1v-9l1-2V232ZM258.5 233l-1 2 1-2ZM725.5 239l.5 136.5h-1l.5-136.5ZM254.5 245l.5 6.5h-1l.5-6.5ZM552.5 258l.5 7.5h-1l.5-7.5ZM615.5 259l.5 7.5h-1l.5-7.5Z"/><path fill="#F8F7F4" stroke="#F8F7F4" d="m228.5 274 .5 24.5h-1l.5-24.5ZM228.5 300l.5 16.5h-1l.5-16.5ZM228.5 318l.5 11.5h-1l.5-11.5ZM228.5 335l.5 12.5h-1l.5-12.5ZM106.5 349l.5 36.5h-1l.5-36.5ZM228.5 351l.5 9.5h-1l.5-9.5ZM228.5 368l.5 23.5h-1l.5-23.5ZM725.5 379l.5 5.5h-1l.5-5.5ZM106.5 392l.5 92.5h-1l.5-92.5ZM228.5 394l.5 41.5h-1l.5-41.5ZM725.5 412l.5 5.5h-1l.5-5.5ZM552.5 428l.5 14.5h-1l.5-14.5ZM615.5 430l.5 5.5h-1l.5-5.5ZM575.5 431l.5 2.5h-1l.5-2.5ZM191.5 435l.5 2.5h-1l.5-2.5ZM167.5 454l.5 3.5h-1l.5-3.5ZM289.5 461l12.5.5-12.5.5v-1ZM243.5 473l2 3-2-3ZM106.5 490l.5 45.5h-1l.5-45.5ZM182.5 497l1 2-1-2ZM189.5 506l3 4-3-4ZM260.5 507l4.5.5-4.5.5v-1ZM290.5 507l61.5.5-61.5.5v-1ZM365.5 507l150.5.5-150.5.5v-1ZM529.5 507l14.5.5-14.5.5v-1ZM251.5 532l6.5.5-6.5.5v-1ZM547.5 532l3.5.5-3.5.5v-1ZM106.5 538l.5 21.5h-1l.5-21.5ZM106.5 561l.5 5.5h-1l.5-5.5ZM106.5 572l.5 2.5h-1l.5-2.5ZM106.5 576l.5 10.5h-1l.5-10.5ZM106.5 592l.5 3.5h-1l.5-3.5ZM106.5 597l.5 2.5h-1l.5-2.5ZM106.5 615l.5 4.5h-1l.5-4.5ZM106.5 650l.5 16.5h-1l.5-16.5ZM106.5 669l.5 11.5h-1l.5-11.5ZM106.5 700l.5 17.5h-1l.5-17.5ZM106.5 735l.5 5.5h-1l.5-5.5ZM106.5 751l.5 3.5h-1l.5-3.5ZM106.5 775l.5 4.5h-1l.5-4.5ZM106.5 781l.5 12.5h-1l.5-12.5ZM699.5 806l.5 3.5h-1l.5-3.5ZM81.5 810l.5 2.5h-1l.5-2.5ZM83.5 828l.5 2.5h-1l.5-2.5ZM722.5 829l.5 2.5h-1l.5-2.5ZM124.5 877l1.5 2.5-2-1 .5-1.5ZM112.5 903l1 2-1-2ZM146.5 905l3 4-3-4ZM655.5 911l-1 2 1-2ZM652.5 914l-1 2 1-2ZM682.5 919l-1 2 1-2ZM674.5 928l-4 5 4-5ZM144.5 938l1 2-1-2ZM148.5 941l1 2-1-2ZM212.5 945l2.5.5-2.5.5v-1ZM227.5 948l2.5.5-2.5.5v-1ZM581.5 948l2.5.5-2.5.5v-1ZM240.5 975l3.5.5-3.5.5v-1ZM568.5 975l5.5.5-5.5.5v-1ZM266.5 976l29.5.5-29.5.5v-1ZM297.5 976l4.5.5-4.5.5v-1ZM318.5 976l225.5.5-225.5.5v-1Z"/><path fill="#FEFEFE" stroke="#FEFEFE" d="m293.5 23 8.5.5-8.5.5v-1ZM507.5 23l5.5.5-5.5.5v-1ZM272.5 24l5.5.5-5.5.5v-1ZM526.5 24l2.5.5-2.5.5v-1ZM254.5 26l-1 2 1-2ZM589.5 37l1 2-1-2ZM309.5 49l5.5.5-5.5.5v-1ZM321.5 49l5.5.5-5.5.5v-1ZM284.5 50l4.5.5-4.5.5v-1ZM513.5 50l4.5.5-4.5.5v-1ZM274.5 51l2.5.5-2.5.5v-1ZM627.5 56l1 2-1-2ZM175.5 58l-1 2 1-2ZM165.5 65l-1 2 1-2ZM642.5 66l1 2-1-2ZM156.5 72l-1 2 1-2ZM604.5 74l1 2-1-2ZM653.5 75l1 2-1-2ZM150.5 77l-1 2 1-2ZM659.5 80l2 3-2-3ZM141.5 85l-1 2 1-2ZM628.5 89l1 2-1-2ZM135.5 91l-1 2 1-2ZM633.5 93l1 2-1-2ZM637.5 96l1 2-1-2ZM676.5 97l1 2-1-2ZM679.5 101l3 4-3-4ZM158.5 106l-2 3 2-3ZM152.5 112l-1 2 1-2ZM341.5 112l5.5.5-5.5.5v-1ZM356.5 112l10.5.5-10.5.5v-1ZM371.5 112l18.5.5-18.5.5v-1ZM402.5 112l13.5.5-13.5.5v-1ZM427.5 112l11.5.5-11.5.5v-1ZM440.5 112l5.5.5-5.5.5v-1ZM281.5 115l3.5.5-3.5.5v-1ZM518.5 115l2.5.5-2.5.5v-1ZM691.5 117l1 2-1-2ZM264.5 118l2.5.5-2.5.5v-1ZM662.5 122l1 2-1-2ZM665.5 126l1 2-1-2ZM136.5 133l-1 2 1-2ZM225.5 133l-1 2 1-2ZM305.5 139l-1 2-11.5-.5 11.5-.5 1-1ZM312.5 139l7.5.5-7.5.5v-1ZM482.5 139l7.5.5-7.5.5v-1ZM502.5 140l5.5.5-5.5.5v-1ZM514.5 141l2.5.5-2.5.5v-1ZM593.5 142l1 2-1-2ZM597.5 145l2 3-2-3ZM244.5 153l-1 2-1.5-.5 2.5-1.5ZM609.5 157l1 2-1-2ZM574.5 161l1 2-1-2ZM227.5 163l-1 2 1-2ZM614.5 163l1 2-1-2ZM581.5 166l1 2-1-2ZM587.5 172l1 2-1-2ZM214.5 176l-1 2 1-2ZM591.5 176l1 2-1-2ZM598.5 186l1 2-1-2ZM84.5 189l.5 2.5h-1l.5-2.5ZM361.5 190l3.5.5-3.5.5v-1ZM436.5 190l2.5.5-2.5.5v-1ZM333.5 191l6.5.5-6.5.5v-1ZM462.5 191l5.5.5-5.5.5v-1ZM486.5 192l2.5.5-2.5.5v-1ZM285.5 195l2.5.5-2.5.5v-1ZM512.5 195l3.5.5-3.5.5v-1ZM254.5 203l1 2-1-2ZM250.5 206l1.5.5-2.5 1.5 1-2ZM724.5 206l.5 2.5h-1l.5-2.5ZM108.5 211l.5 2.5h-1l.5-2.5ZM81.5 212l.5 2.5h-1l.5-2.5ZM242.5 212l-1 2 1-2ZM698.5 213l.5 6.5h-1l.5-6.5ZM363.5 216l25.5.5-25.5.5v-1ZM400.5 216l8.5.5-8.5.5v-1ZM418.5 216l2.5.5-2.5.5v-1ZM425.5 216l20.5.5-20.5.5v-1ZM328.5 217l5.5.5-5.5.5v-1ZM466.5 217l6.5.5-6.5.5v-1ZM315.5 218l3.5.5-3.5.5v-1ZM484.5 218l2.5.5-2.5.5v-1ZM302.5 219l2.5.5-2.5.5v-1ZM725.5 219l.5 2.5h-1l.5-2.5ZM294.5 220l3.5.5-3.5.5v-1ZM503.5 220l3.5.5-3.5.5v-1ZM510.5 221l2.5.5-2.5.5v-1ZM107.5 225l.5 5.5h-1l.5-5.5ZM80.5 230l.5 11.5h-1l.5-11.5ZM543.5 231l1 2-1-2ZM107.5 233l.5 15.5h-1l.5-15.5ZM546.5 233l2 3-2-3ZM165.5 242l.5 5.5h-1l.5-5.5ZM614.5 243l.5 4.5h-1l.5-4.5ZM80.5 244l.5 2.5h-1l.5-2.5ZM578.5 246l.5 3.5h-1l.5-3.5ZM551.5 247l.5 2.5h-1l.5-2.5ZM191.5 250l.5 5.5h-1l.5-5.5ZM80.5 251l.5 6.5h-1l.5-6.5ZM578.5 251l.5 14.5h-1l.5-14.5ZM107.5 255l.5 5.5h-1l.5-5.5ZM191.5 258l.5 6.5h-1l.5-6.5ZM80.5 259l.5 7.5h-1l.5-7.5ZM699.5 259l.5 2.5h-1l.5-2.5ZM107.5 268l.5 8.5h-1l.5-8.5ZM191.5 270l.5 12.5h-1l.5-12.5ZM80.5 274l.5 6.5h-1l.5-6.5ZM107.5 280l.5 2.5h-1l.5-2.5ZM80.5 282l.5 24.5h-1l.5-24.5ZM699.5 299l.5 3.5h-1l.5-3.5ZM191.5 310l.5 22.5h-1l.5-22.5ZM699.5 311l.5 78.5h-1l.5-78.5ZM80.5 312l.5 3.5h-1l.5-3.5ZM80.5 324l.5 16.5h-1l.5-16.5ZM579.5 330l.5 4.5h-1l.5-4.5ZM191.5 339l.5 18.5h-1l.5-18.5ZM80.5 342l.5 16.5h-1l.5-16.5ZM579.5 349l.5 4.5h-1l.5-4.5ZM254.5 380l.5 4.5h-1l.5-4.5ZM578.5 380l.5 64.5h-1l.5-64.5ZM699.5 391l.5 6.5h-1l.5-6.5ZM80.5 396l.5 2.5h-1l.5-2.5ZM191.5 396l.5 8.5h-1l.5-8.5ZM254.5 398l.5 23.5h-1l.5-23.5ZM699.5 406l.5 18.5h-1l.5-18.5ZM80.5 409l.5 24.5h-1l.5-24.5ZM191.5 413l.5 11.5h-1l.5-11.5ZM165.5 431l.5 9.5h-1l.5-9.5ZM80.5 435l.5 15.5h-1l.5-15.5ZM614.5 440l.5 6.5h-1l.5-6.5ZM546.5 453l-1 2 1-2ZM80.5 456l.5 2.5h-1l.5-2.5ZM80.5 460l.5 341.5h-1l.5-341.5ZM699.5 462l.5 3.5h-1l.5-3.5ZM238.5 468l1 2-1-2ZM699.5 469l.5 11.5h-1l.5-11.5ZM199.5 475l1 2-1-2ZM561.5 475l-.5 1.5-.5 1.5-.5-1.5 1.5-1.5ZM604.5 480l-1 2 1-2ZM552.5 481l-1 2-1.5-.5 2.5-1.5ZM206.5 486l1 2-1-2ZM269.5 486l3.5.5-3.5.5v-1ZM535.5 486l2.5.5-2.5.5v-1ZM344.5 487l5.5.5-5.5.5v-1ZM394.5 487l28.5.5-28.5.5v-1ZM430.5 487l9.5.5-9.5.5v-1ZM479.5 487l5.5.5-5.5.5v-1ZM493.5 487l4.5.5-4.5.5v-1ZM516.5 487l7.5.5-7.5.5v-1ZM526.5 487l2.5.5-2.5.5v-1ZM209.5 489l2 3-2-3ZM623.5 499l-1 2 1-2ZM184.5 501l1 2-1-2ZM244.5 505l3.5.5-3.5.5v-1ZM557.5 505l3.5.5-3.5.5v-1ZM618.5 505l-1 2 1-2ZM193.5 511l3.5 2.5-2.5-1.5-1-1ZM612.5 511l-2 3 2-3ZM608.5 514l-1 2 1-2ZM202.5 517l1 2-1-2ZM699.5 518l.5 124.5h-1l.5-124.5ZM257.5 533l8.5.5-8.5.5v-1ZM539.5 533l7.5.5-7.5.5v-1ZM699.5 644l.5 19.5h-1l.5-19.5ZM699.5 665l.5 8.5h-1l.5-8.5ZM699.5 680l.5 2.5h-1l.5-2.5ZM699.5 687l.5 11.5h-1l.5-11.5ZM107.5 796l.5 4.5h-1l.5-4.5ZM107.5 802l.5 7.5h-1l.5-7.5ZM725.5 802l.5 3.5h-1l.5-3.5ZM698.5 811l.5 3.5h-1l.5-3.5ZM81.5 816l.5 2.5h-1l.5-2.5ZM722.5 836l-1 2 1-2ZM137.5 893l2 3-2-3ZM698.5 897l-1 2 1-2ZM664.5 900l-1 2 1-2ZM144.5 902l2 3-2-3ZM112.5 904l1 2-1-2ZM659.5 906l-1 2 1-2ZM118.5 912l1 2-1-2ZM652.5 913l-4 5 4-5ZM159.5 917l1 2-1-2ZM167.5 923l1 2-1-2ZM170.5 925l1 2-1-2ZM131.5 927l3 4-3-4ZM173.5 927l1 2-1-2ZM676.5 927l-2 3 2-3ZM142.5 937l1 2-1-2ZM664.5 938l-1 2 1-2ZM658.5 943l-1 2 1-2ZM239.5 949l3.5.5-3.5.5v-1ZM569.5 949l4.5.5-4.5.5v-1ZM254.5 950l12.5.5-12.5.5v-1ZM268.5 950l81.5.5-81.5.5v-1ZM353.5 950l15.5.5-15.5.5v-1ZM371.5 950l50.5.5-50.5.5v-1ZM427.5 950l23.5.5-23.5.5v-1ZM453.5 950l81.5.5-81.5.5v-1ZM536.5 950l24.5.5-24.5.5v-1ZM630.5 960l-1 2-1.5-.5 2.5-1.5ZM584.5 974l2.5.5-2.5.5v-1ZM233.5 975l3.5.5-3.5.5v-1ZM577.5 975l2.5.5-2.5.5v-1ZM247.5 976l4.5.5-4.5.5v-1ZM562.5 976l3.5.5-3.5.5v-1Z"/><path fill="#FFF" stroke="#FFF" d="M0 0h800v1000H0V0Zm281 23-23 4-3-1-2 2h-5l-25 7-29 13h-2l-1 2q-28 14-49 35l-2 3-4 3-2 3-3 1-3 5q1 2-2 1l-18 27-11 22-13 40-2 20v2l-1 1v15l-1 3v571l1 1v18l6 30 9 25 16 29 19 23q22 22 53 35l23 8 20 4 20 1 1 1h318l1-1h13l25-5 25-9q18-9 34-22l7-7 1 1v-2l3-2 5-7 3-2 16-23 10-20 9-24 3-15q3-2 1-3l2-7 1-22 1-1V220l-1-1-1-20-9-35-13-30-11-17q1-3-2-2l-1-3-10-13-3-2-3-6-19-16-4-5h-2l-19-14-28-14q-3 1-2-1h-1l-5-2q-2-4-3-1l-6-3-25-7h-6l-12-3h-10l-1-1h-13l-3-1H294l-2 1h-10l-1-1Z"/><path fill="#FFF" stroke="#FFF" d="M289.5 50h221l1 1h15l1 1 23 3 16 4 29 11Q632 87 657 115.5l2 3 17 23 13 28 7 25 1 12 1 1v12l1 1v590l-1 1v9l-4 20-11 30-13 23-16.5 19.5-10.5 8q1.1 2.7-1.5 2l-18 12-26 10-18 4h-10l-1 1h-32l-1 1-1-1h-81l-2 1-1-1h-23l-5 1-1-1h-50l-2 1-1-1h-100l-1 1-1-1-34-1-11-3h-5l-19-6q-29.3-11.2-48.5-32.5l-2-3-14-17V885q-2.7 1.1-2-1.5l-9-16-10-28-4-20v-17l-1-1 1-5-1-1v-512l1-3-1-3 1-1v-8q-2.5-1.5-1-7 2.3-1.2 1-6-2.2-1.3-1-6l1-1v-15l-1-2 1-1v-16l1-1 1-14 4-18 5-15 15-30 19-25.5 6-4.5q-.7-2.2 1.5-1.5 22.3-23.2 54-37l30-11 19-4h6l8-2h11l1-1Zm50.5 62-1 1h-36l-11 2-4-1-17 4h-6l-27 9-12 6-14 10-3 2q-21 17-33 44l-6 17-4 21v11l-1 1 1 2-1 2v198l1 1v12l7 29 11 19 9 9v1l14 9 13 6 13 4 12 1 1 1h11l1 1h289l1-1h15l16-3q18-6 32-16l4-5 3-2q18-19 22-52v-2l1-2V236l-1-1 1-2-1-1v-7l-3-16-8-22-13-22-12-15-23-16q-3 1-2-1h-1l-22-10h-4l-12-4h-2l-11-3-15-1-1-1h-16l-1-1h-47q-2-2-6-1h-13l-1 1h-10l-1-1q-11-2-16 1h-2q-7 2-8-1h-18l-1 1-2-1h-2q-9-1-13 1h-2l-10-1h-2Z"/><path fill="#FFF" stroke="#FFF" d="M320.5 139h161l1 1h19l1 1 19 1 6 2h5l3 2h2l26 9q13.6 6.4 23.5 16.5l1.5 2.5 2.5 1.5q10 11.5 16 27l6 24 2 24-1 2 1 3v181l-1 2v15l-4 13v2l-3 8-12.5 15.5q-2.2-.7-1.5 1.5h-2l-1.5 2.5-7 4-12 4-13 1-8 2h-293l-1-1-19-2-10.5-3-.5-2h-2q-12.7-4.8-19.5-15.5l-9-19-2-18-1-1v-32l-1-1v-2l1-14-1-1v-35l1-3v-18l-1-2 1-2-1-2 1-1v-22q-2.7-1.8-1-8v-2l1-30-1-5q2.5-1.5 1-7l-1-2 1-1 1-29 6-24q8.4-21.6 24.5-35.5l3-2 9-7 10-5 25-9h6l13-3h15l1-1h14l1-1Zm23.5 51-11 2-2-1-2 1-27 1-8 2-3-1-22 5-11 4q-10 3-15 9-12 10-15 28v207q3 13 10 22t18 14l14 4h13l1 1 1-1h59l1 1q4 1 6-1h37l1 1 2-1 4 1h28l1-1q5-1 7 1h9l1-1h38l1 1q4 1 6-1 6-2 8 1l5-1h17l1 1q6 2 8-1l2 1 11-1h2l17-7 3-3 1 1 13-17 4-13v-2l1-1v-90l1-1-1-5v-13l1-1-1-5v-78l-1-1 1-4v-2l-3-13-6-12-11-11-24-10h-5l-14-4h-9l-9-2h-8l-1-1h-15l-14-1h-20l-1-1h-77l-1 1h-16l-1-1Z"/><path fill="#FFF" stroke="#FFF" d="m389.5 216 19 1q1.5-2.5 7-1l3 1 6-1 1 1 58 1 1 1h10l1 1 21 2 21 6 12.5 9.5 1 12 1 1v194q-3.2 7.8-9.5 12.5l-12 4h-253l-12-3-7.5-6.5-3-8v-202l1-4 3.5-4.5 8-5 19-6 18-2 1-1h13l1-1h14l2-1h53l1-1Z"/><path fill="#F1EEE9" stroke="#F1EEE9" d="M285.5 24q5.9-1.7 4.5 2h-12.5l-1 1-27 3-21 6 1-2 27-7 16-1 1-1h11l1-1ZM516 24l24.5 3h2l20 3 14.5 5.5-1.5.5-20-6h-7l-13-3-19.5-1v-2ZM262 33q3-1 2 2-3 1-2-2ZM225.5 35q2.6-.7 1.5 2l-10.5 3 1-2 8-3ZM578 35q29 8.8 52 24.5l-1.5.5-27-15-23.5-8v-2ZM213.5 40l1.5.5-13 5.5q1.3 3.3-3.5 2l-12 6-3 3-4 1L157 75.5q.8 2.6-2.5 1.5L143 87.5l1 2-1.5-.5L131 99.5l-1 3.5-4 2.5q.7 2.6-2 1.5v2.5l-3 4.5q-2.7-1.1-2 1.5l-6.5 8.5.5-1.5q14.1-24.9 35.5-42.5 27.4-25.1 65-40ZM291.5 48l2.5.5-2.5.5v-1ZM302.5 48l18.5.5-18.5.5v-1ZM324.5 48l31.5.5-31.5.5v-1ZM357.5 48l145.5.5-145.5.5v-1ZM514.5 48l1 2-3.5-.5 2.5-1.5ZM287.5 49l2.5.5-2.5.5v-1ZM541.5 51l12.5 3.5-2.5.5-11.5-2.5 1.5-1.5ZM563.5 56l2.5 1.5-1.5-.5-1-1Z"/><path fill="#F1EEE9" stroke="#F1EEE9" d="m188.5 58 .5 2-2-.5 1.5-1.5ZM631.5 61 653 75l1.5 3L668 89.5q-.7 2.3 1.5 1.5 25.2 25.8 40.5 61.5l12 40 2 19h-1l-5-30-6-20-2-2v-3l-17-34-16.5-21.5-2.5-.5 1-1-6-6-2.5-3.5-6.5-5.5q.8-2.2-1.5-1.5L648 74.5q.8-2.2-1.5-1.5l-13-9-2-3ZM202 63q3-1 2 2-3 1-2-2ZM175.5 66q3 1.5 0 3-2.2.8-1.5-1.5l1.5-1.5ZM593.5 67l5.5 2-.5 2q-4.6-1.2-5-4ZM194.5 76l-2 3-7 4 1-2 8-5Z"/><path fill="#F1EEE9" stroke="#F1EEE9" d="m642.5 77 .5 2.5h-1l.5-2.5ZM618.5 80l2.5 1-.5 2-2-3ZM622.5 83l5.5 4.5-2.5-1.5-3-3ZM182.5 84l-2 3-.5-2 2.5-1ZM178.5 87l-2 3-9 7-.5-1.5 11.5-8.5ZM629.5 88l9.5 7.5-2.5-1.5q-5.5-2.1-7-6ZM639 88q3-1 2 2-3 1-2-2ZM165.5 97l.5 1.5-3 1.5-2.5 4-3.5 2.5q.8 2.3-1.5 1.5-21.2 20.8-34 50l-.5-2.5 13-23 17-22.5 4-2.5q-.7-2.2 1.5-1.5l4-5 5-4ZM640.5 97l5.5 4.5-1.5.5-4-5ZM647.5 103l4.5 3.5-.5 2.5-4.5-4.5.5-1.5ZM655.5 111l8.5 9.5-1.5.5-7.5-8.5.5-1.5ZM302.5 114l56.5.5-65.5 1.5-1 1-15 1-9 3h-6l-8 3-.5-2 15.5-4h6l14-3h12l1-1ZM371.5 114l3.5.5-3.5.5v-1ZM376.5 114h121l1 1h14l1 1 18 2 13 3 4.5 2.5-1.5-.5-7-2h-6l-9-3h-7l-9-2h-31l-1-1h-101v-1Z"/><path fill="#F1EEE9" stroke="#F1EEE9" d="m291.5 118 2.5 1.5-3 .5.5-2ZM352.5 120l12.5.5-12.5.5v-1ZM366.5 120l22.5.5-22.5.5v-1ZM403.5 120l11.5.5-11.5.5v-1ZM441.5 120l10.5.5-10.5.5v-1ZM664.5 122l2.5 3.5-3-2 .5-1.5ZM251.5 123l1 2-11 3 1-2 9-3ZM553.5 124l3.5 1.5-1.5.5-2-2ZM111.5 125l.5 1.5-11 19-1 6-4 6-2 5v4l-1.5 1.5-.5-2.5 11-27 8.5-13.5ZM558.5 126l4.5 1.5-2.5.5-2-2ZM668.5 127l4.5 6.5-2 .5-2.5-7ZM238.5 128l1.5.5-10.5 5.5 2-3 7-3ZM566.5 129l9.5 4.5-1.5.5-8-4v-1ZM226.5 134l1.5.5-20 13.5-1 4q-6.1.8-9 6.5.8 2.3-1.5 1.5l-2.5 6-4 1-3.5 6 .5-1.5q8.4-15.1 21.5-25.5l18-12ZM126 135q3.3-1.1 2 3-3.3 1.1-2-3ZM579.5 135l18.5 11q-1.1 2.7 1.5 2 17.4 15.1 27.5 37.5l-2-1-11-19.5q-2.7 1.1-2-1.5l-9-11.5q-5.2 2.1-4-2.5l-5-2.5q1.1-2.7-1.5-2l-13-9v-1ZM673.5 135l8.5 14.5-2-1-6.5-13.5ZM463.5 137l13.5.5-13.5.5v-1ZM265 138q4.1-1.3 3 2-4.1 1.3-3-2ZM578.5 138l2.5 1.5-1.5.5-1-2ZM525.5 141l3.5 1.5-1.5-.5q-3 .5-2-1ZM539.5 144l4.5 1.5-1.5.5-3-1v-1ZM219 146l4 .5-4 1.5v-2ZM687 148l2 .5-2 1V148ZM555.5 150l3.5 1.5-1.5.5-2-2ZM683.5 153l3.5 5.5-2 .5-1.5-6ZM564.5 154l4.5 2.5-1.5-.5q-3.8.5-3-2ZM120.5 159l.5 1.5-8.5 22.5-.5-1.5 1-5 3-5v-4l4.5-8.5ZM228.5 159l2.5.5-3 1.5.5-2ZM687.5 161l3.5 9.5h-1l-3-7 .5-2.5ZM225.5 163l-2 3-1.5-.5 3.5-2.5ZM580.5 163l2.5 1 2.5 4 3.5 1.5-1.5 1.5-5-5q-2.2.8-1.5-1.5l-.5-1.5ZM220.5 167l1.5.5q-10.8 8.7-17.5 21.5l-.5-1.5 2-4.5q2.7 1.1 2-1.5l3-5.5 3-1.5 2-3 4.5-4.5ZM691.5 172l1.5 3.5-2-1 .5-2.5ZM590.5 173l8.5 10.5-3-2-5.5-8.5ZM598 173q3-1 2 2-3 1-2-2ZM185.5 174l.5 1.5-4 5-1 6-5.5 8.5-.5-1.5 8-17 2.5-2.5ZM89.5 176l.5 2.5-3 8v7l-3 10v11l-1 1-.5 8.5-.5-14.5 1-1 2-19 4.5-13.5ZM693.5 177l1.5 6.5h-1l-.5-6.5ZM700.5 182l.5 3q-2.7 1.1-2-1.5l1.5-1.5ZM111.5 185q2.3-.7 1.5 1.5l-2 4-2.5 12.5-.5-4.5 1-1 1-11 1.5-1.5ZM599.5 185l1.5 2.5h-1l-.5-2.5ZM694.5 185q3-.9 1.5 3.5l2 4v6l2 7v11h-1l-2-22-2.5-9.5ZM628.5 189l7.5 19.5 2 14h-1l-3-16q-3.7-4.3-4-12l-2-2 .5-3.5ZM203.5 190l-.5 1.5-1.5 3.5-.5-2.5 2.5-2.5ZM362.5 191h76l1.5 1.5-17.5.5-1-1h-44l-1 1h-27v-1h12l1-1ZM332.5 192l3.5 1.5-31.5 1.5v-1l27-1 1-1ZM446.5 192l6.5.5-6.5.5v-1ZM466.5 192l19.5 1.5-17.5.5-2-2ZM298.5 194q5.9-1.7 4.5 2l-24.5 3v-1l20-4ZM487.5 194l21 1 14.5 3.5-4.5.5-3-1-28-3v-1ZM606.5 196l4.5 14.5h-1l-4-11 .5-3.5ZM174.5 197l.5 2.5-2.5 6.5-.5-4.5 2.5-4.5ZM271.5 199l3.5.5-3.5 2.5h-5l-9 5-7 2-10.5 8.5-5 7-3.5 9.5-.5-3.5q3.9-11.6 12.5-18.5l12-7 16-6ZM526.5 199q27.4 4.1 42.5 20.5l2 4-3-2-2-3-6-4-2.5-3.5q-11-7-27-9l-4-2v-1ZM107.5 205l.5 4.5h-1l.5-4.5ZM171.5 207l.5 2.5-1.5 2.5-.5-1.5 1.5-3.5ZM195.5 209l.5 2.5-4 15-1.5 23.5-.5-16.5 1-1 1-13 3.5-10.5ZM106 211l2 .5-1.5 3.5-.5-4ZM719.5 211l.5 3.5h-1l.5-3.5ZM611.5 212q3.3 4.2 2.5 12.5h-1l-1.5-12.5ZM170.5 213l.5 1.5-1.5 4.5-.5-4.5 1.5-1.5ZM723.5 213l1.5 3.5-2 1 .5-4.5ZM378.5 214l9.5.5-9.5.5v-1ZM397.5 214l12.5.5-12.5.5v-1ZM411.5 214l3.5.5-3.5.5v-1ZM106.5 220l.5 14.5q-2.2 1.3-1 6v2l1 7-1 1v16l-.5 335.5-.5-379.5 1.5-2.5ZM700.5 221l.5 25.5h-1l.5-25.5ZM168.5 222l.5 4.5-1.5 8.5-.5-7.5 1.5-5.5ZM724.5 222l.5 579.5h-1v-25l-1-1v-363l1-1 .5-189.5ZM531.5 224l5.5 1q1.1 2.7-1.5 2l-4-2v-1ZM571.5 225l2.5 3.5 3 10q-1.5 5.5 1 7v21h-1l-1-15 1-3q-3.1-4.4-2-13l-3-5-.5-5.5ZM614.5 226l1.5 9.5-2-1 .5-8.5ZM263.5 228l-2 3-5.5 4.5-1.5 4.5-.5-3.5 4-6.5 5.5-2ZM541.5 228l6.5 3q1.1 2.7-1.5 2l-5-5ZM230.5 235l.5 5.5-1 1-.5 44.5-.5-46.5 1.5-4.5ZM86.5 236l.5 564.5h-1v-25l-1-1v-86l1-1v-25l-1-1v-49l1-1v-12l-1-1v-10l1-1v-13l-1-1v-23l1-1v-12l-1-1v-11l1-1v-12l-1-1v-37l1-1v-24l-1-1v-11l1-1v-13l-1-1v-173l1-1 .5-12.5ZM639.5 237l.5 23.5h-1v-21l-1-1 1.5-1.5ZM166.5 240l.5 6.5h-1l.5-6.5ZM253.5 241l.5 139.5h-1l.5-139.5ZM615.5 241l1.5 7.5v192l-1.5 5.5-.5-5.5 1-1v-183l-1-1 .5-14.5ZM552.5 243l1.5 4.5v35h-1v-28l-1-1 .5-10.5ZM700.5 248l.5 4.5h-1l.5-4.5ZM190.5 254l.5 186.5 1 1q-1.3 10.3 1 17h-1l-1-12-1-1 .5-191.5ZM639.5 263l.5 4.5h-1l.5-4.5ZM639.5 272l.5 27.5h-1l.5-27.5ZM166.5 280l.5 3.5h-1l.5-3.5ZM229.5 298l.5 32.5h-1l.5-32.5ZM639.5 305l.5 114.5h-1l.5-114.5ZM166.5 329l.5 19.5h-1l.5-19.5ZM229.5 333l.5 15.5h-1l.5-15.5ZM229.5 354l.5 6.5h-1l.5-6.5ZM229.5 363l.5 23.5h-1l.5-23.5ZM553.5 368l.5 3.5h-1l.5-3.5ZM577.5 380l.5 61.5v2l-1.5 6.5q-2.2-.7-1.5-4.5l2-4 .5-61.5ZM166.5 387l.5 10.5h-1l.5-10.5ZM253.5 388l.5 14.5h-1l.5-14.5ZM553.5 393l.5 7.5h-1l.5-7.5ZM229.5 395l.5 51.5h-1l.5-51.5ZM253.5 405l.5 12.5h-1l.5-12.5ZM553.5 405l.5 8.5h-1l.5-8.5ZM553.5 415l.5 30.5-4 5v2q.7 2.6-2 1.5l5-10.5.5-28.5ZM639.5 421l1.5 3.5-1 1-.5 27.5-1.5-5.5 1-1 .5-25.5ZM253.5 423l.5 21.5 5 9-4-3-2-6 .5-21.5ZM166 437q3.3-1.3 2 3.5l-2-1V437ZM167.5 445l1.5 13.5h-1l-.5-13.5ZM570 449q3.3-1.1 2 3-3.3 1.1-2-3ZM575.5 451l.5 1.5-3.5 7.5-.5-1.5 3.5-7.5ZM231.5 452q3.1 1.4 2.5 6.5h-1l-1.5-6.5ZM261.5 456l3.5 2.5-1.5.5-2.5-1 .5-2ZM544.5 456l.5 1.5-2.5 1.5 2-3ZM169.5 460l2.5 12.5h-1l-3-10 1.5-2.5ZM268.5 460l6.5 1.5-4.5.5-2-2ZM536.5 460l1.5.5-5.5 1.5v-1l4-1ZM613.5 460l.5 5.5-10 20-10.5 10.5-1.5-.5q16.4-12.1 21.5-35.5ZM235.5 461l4.5 7 5 3.5 4.5 5.5 2.5 1.5-1.5.5-10.5-9.5-4.5-8.5Z"/><path fill="#F1EEE9" stroke="#F1EEE9" d="M570 461q2.7-1.1 2 1.5L561.5 475l-4 3 4.5-5.5-.5-1.5 6.5-4.5 2-5.5ZM194.5 464l3.5 11.5q5.2 10.3 13.5 17.5 2.3-.7 1.5 1.5l.5 1.5-8.5-7.5-9-15-2-6 .5-3.5ZM636.5 465l.5 4.5-1.5 3.5-.5-4.5 1.5-3.5ZM634.5 474l.5 1.5-4.5 9.5-.5-1.5 4.5-9.5ZM173.5 479q2.3-.7 1.5 1.5l-1.5-1.5ZM255.5 480l2.5 1.5-1.5.5-1-2ZM266 483l3 1.5-3 .5v-2ZM629.5 486l.5 1.5-1.5 2.5-.5-2.5 1.5-1.5ZM178.5 489l5.5 8.5-3-2-3-5 .5-1.5ZM626.5 491l.5 1.5-12 16.5-12 8q-1.1-2.7 1.5-2l2.5-1q-1.1-2.7 1.5-2l4-5 3.5-1.5 4-6.5 3-1.5q.3-4.7 3.5-6.5ZM187 492q3-1.2 2 2.5l-2-1V492ZM700.5 498l1.5 3.5-1 1-.5 9.5v-14ZM184.5 499q2.3-.7 1.5 1.5l3 4-2-1-2.5-4.5ZM224 501l5 1.5-5 .5v-2ZM580.5 501l2.5.5-1 2.5q-5.2 1.7-4-2l2.5-1ZM230.5 503l24.5 4.5-9.5.5-11-2-4-2v-1ZM575.5 503l1.5.5-4.5 2.5h-5l-3 2q-6.2-1.7-8 1h-299v-1h293l1-1 19-2 5-2ZM190.5 506l4.5 3.5-1.5.5-3-4ZM196.5 511l5.5 4.5-1.5-.5-4-4ZM212.5 515q2.3-.7 1.5 1.5l-1.5-1.5ZM203.5 516l11.5 6.5-2.5.5-7-4-2-3ZM601.5 517l-2 3-7 3 1-2 8-4ZM216.5 523l5.5 2.5-2.5.5-3-3ZM585.5 524l3.5.5-7.5 3.5-12 3h-6v-1l14-2 8-4ZM223.5 526l15.5 3q1.1 2.7-1.5 2l-14-4v-1ZM561.5 527l3.5.5-3.5.5v-1ZM241.5 530l2.5.5-2.5.5v-1ZM250.5 531l34 1 1-1h15l3 1 7-1 3 1 3-1 4 1 3-1h2l2 1h116l8-1 1 1h26l2-1 4 1q1.3-2.2 6-1l5 1 2-1h2l29 1 3-1h2l7.5 1.5-276.5.5-1-1h-13v-1ZM547.5 531l5.5.5-5.5.5v-1ZM557.5 531l2.5.5-2.5.5v-1ZM105.5 611l.5 15.5h-1l.5-15.5ZM105.5 636l.5 85.5h-1l.5-85.5ZM105.5 723l.5 77.5h-1l.5-77.5ZM700.5 786l.5 20.5h-1l.5-20.5ZM106.5 805l1.5 21.5 6 21-2-1-5-20-1-19-1-1 1.5-1.5ZM723.5 806l.5 15.5-3 17-4.5 13.5-.5-3.5 5-18 2.5-24.5ZM699.5 813l.5 7.5-1 1-1 12-3 12-1.5 1.5-.5-3.5 5-16 1.5-14.5ZM82.5 814l2.5 17.5h-1l-2-11 .5-6.5ZM85.5 833l4.5 18.5-2-1-1-7-2-4 .5-6.5ZM104 838q3-1.2 2 2.5l-2 1V838ZM692.5 848l.5 2.5h-1l.5-2.5ZM691.5 852l.5 1.5-4.5 10.5-.5-2.5 4.5-9.5ZM90.5 854l8.5 22.5-2-1-7-18 .5-3.5ZM115.5 854l3.5 8.5h-1l-3-6 .5-2.5ZM714 855q2.7-1.1 2 1.5l-2.5 4.5-.5-3.5 1-2.5ZM712.5 863l.5 1.5-4.5 9.5-.5-1.5 4.5-9.5ZM119.5 864l5.5 11.5h-1q-4.6-4.8-4.5-11.5ZM686.5 865l.5 1.5-8 17-13.5 18.5-.5-1.5 16-23 5.5-12.5ZM117 874q3-1 2 2-3 1-2-2ZM707.5 875l.5 2.5-5.5 9.5.5-1.5 4.5-10.5ZM125.5 877l3.5 5.5-2-1-1.5-4.5ZM99.5 878l4.5 8 2 .5-1.5 2.5-5.5-9.5.5-1.5ZM129.5 884l8.5 11.5-1.5-.5-2.5-1.5-4.5-9.5ZM701.5 888l.5 1.5-14 23.5q-2.7-1.1-2 1.5l-6 8.5-4 2.5-9.5 10.5-18 14-26 13 1-2q8.2-1.8 13-7h3l17-11 22.5-21.5q12.8-15.2 22.5-33.5ZM105.5 890l7 11q2.6-.8 1.5 2.5l6 6v2l4 5.5q2.7-1.1 2 1.5 2.5 4.8 5 3l1 4.5 3 1.5q-.7 2.3 1.5 1.5l7.5 6.5 1.5 2.5 16.5 11.5-1.5.5q-21.2-12.8-36.5-31.5l-14-19-4.5-9.5ZM138.5 897q2.3-.7 1.5 1.5l10 12-1.5-.5q-2.2.8-1.5-1.5l-2.5-3.5-2.5-1.5-3.5-6.5ZM674 899l2 .5-2 1V899ZM663.5 903l.5 1.5q-5.2 2.8-6 8.5l-4 1-3.5 5-7 5 4-5 12.5-11.5 3.5-4.5ZM151.5 911l1.5 2.5-2-1 .5-1.5ZM154.5 915l3.5 2.5-1.5-.5-2-2ZM156.5 924l1 2q-2.8.7-1-2ZM640.5 925l-1 2 1-2ZM637.5 927l.5 1.5-9.5 5.5v-1l9-6ZM172.5 928l2.5 1.5-1.5.5-1-2ZM176.5 931l15.5 7.5-2.5.5-12-6-1-2ZM622.5 936l-1 2-3 1 1-2 3-1ZM615.5 939l.5 2-9.5 3v-1l9-4ZM195.5 940l3.5 1.5-1.5.5-2-2ZM200.5 942l10.5 3.5-1.5.5-9-3v-1ZM216 946l10 2.5-5.5.5-4.5-1v-2ZM593.5 946l4.5.5-2.5 1.5-14 2v-1l12-3ZM227.5 949l2.5.5-2.5.5v-1ZM232.5 949l3.5 1.5-4 .5.5-2ZM578 949q3-1 2 2-3 1-2-2ZM163.5 950l26.5 13.5-1.5.5-18-8-5-3-2-3ZM239.5 950l3.5.5-3.5.5v-1ZM570.5 950l2.5.5-2.5.5v-1ZM625.5 954l2.5.5q-2.1 3.3-2.5-.5ZM616 958q3-1 2 2-3 1-2-2ZM191.5 963l6 3h4l3 2 12.5 2.5-2.5 1.5-23.5-7 .5-2ZM619.5 963l1.5.5-3.5 1.5v-1l2-1ZM609.5 966l4.5.5-8.5 2.5v-1l4-2ZM581.5 969l2.5.5-2.5.5v-1ZM598.5 969l5.5.5-7.5 2.5h-4v-1l6-2ZM218.5 971l2.5.5-2.5.5v-1ZM222.5 972l3.5.5-3.5.5v-1ZM573.5 973q4.5-1 5.5 1.5l-8.5.5v-1l3-1ZM271.5 975l274.5.5-274.5.5v-1Z"/></svg>